<?xml version="1.0" encoding="utf-8" standalone="no"?>
<!DOCTYPE svg PUBLIC "-//W3C//DTD SVG 1.1//EN"
  "http://www.w3.org/Graphics/SVG/1.1/DTD/svg11.dtd">
<svg xmlns:xlink="http://www.w3.org/1999/xlink" width="605.87132pt" height="265.756918pt" viewBox="0 0 605.87132 265.756918" xmlns="http://www.w3.org/2000/svg" version="1.1">
 <metadata>
  <rdf:RDF xmlns:dc="http://purl.org/dc/elements/1.1/" xmlns:cc="http://creativecommons.org/ns#" xmlns:rdf="http://www.w3.org/1999/02/22-rdf-syntax-ns#">
   <cc:Work>
    <dc:type rdf:resource="http://purl.org/dc/dcmitype/StillImage"/>
    <dc:date>2023-12-24T16:06:19.004472</dc:date>
    <dc:format>image/svg+xml</dc:format>
    <dc:creator>
     <cc:Agent>
      <dc:title>Matplotlib v3.8.1, https://matplotlib.org/</dc:title>
     </cc:Agent>
    </dc:creator>
   </cc:Work>
  </rdf:RDF>
 </metadata>
 <defs>
  <style type="text/css">*{stroke-linejoin: round; stroke-linecap: butt}</style>
 </defs>
 <g id="figure_1">
  <g id="patch_1">
   <path d="M 0 265.756918 
L 605.87132 265.756918 
L 605.87132 0 
L 0 0 
z
" style="fill: #ffffff"/>
  </g>
  <g id="axes_1">
   <g id="patch_2">
    <path d="M 40.67132 228.96 
L 598.67132 228.96 
L 598.67132 7.2 
L 40.67132 7.2 
z
" style="fill: #eaeaf2"/>
   </g>
   <g id="matplotlib.axis_1">
    <g id="xtick_1">
     <g id="line2d_1">
      <path d="M 66.034957 228.96 
L 66.034957 7.2 
" clip-path="url(#p56f3bf5c8a)" style="fill: none; stroke: #ffffff; stroke-linecap: round"/>
     </g>
     <g id="line2d_2"/>
     <g id="text_1">
      <!-- $\mathdefault{0.0}$ -->
      <g style="fill: #262626" transform="translate(59.669917 242.878498) scale(0.1 -0.1)">
       <defs>
        <path id="CMR17-30" d="M 2688 2025 
C 2688 2416 2682 3080 2413 3591 
C 2176 4039 1798 4198 1466 4198 
C 1158 4198 768 4058 525 3597 
C 269 3118 243 2524 243 2025 
C 243 1661 250 1106 448 619 
C 723 -39 1216 -128 1466 -128 
C 1760 -128 2208 -7 2470 600 
C 2662 1042 2688 1559 2688 2025 
z
M 1466 -26 
C 1056 -26 813 325 723 812 
C 653 1188 653 1738 653 2096 
C 653 2588 653 2997 736 3387 
C 858 3929 1216 4096 1466 4096 
C 1728 4096 2067 3923 2189 3400 
C 2272 3036 2278 2607 2278 2096 
C 2278 1680 2278 1169 2202 792 
C 2067 95 1690 -26 1466 -26 
z
" transform="scale(0.015625)"/>
        <path id="CMMI12-3a" d="M 1178 307 
C 1178 492 1024 619 870 619 
C 685 619 557 466 557 313 
C 557 128 710 0 864 0 
C 1050 0 1178 153 1178 307 
z
" transform="scale(0.015625)"/>
       </defs>
       <use xlink:href="#CMR17-30" transform="scale(0.996264)"/>
       <use xlink:href="#CMMI12-3a" transform="translate(45.690477 0) scale(0.996264)"/>
       <use xlink:href="#CMR17-30" transform="translate(72.787654 0) scale(0.996264)"/>
      </g>
     </g>
    </g>
    <g id="xtick_2">
     <g id="line2d_3">
      <path d="M 131.069922 228.96 
L 131.069922 7.2 
" clip-path="url(#p56f3bf5c8a)" style="fill: none; stroke: #ffffff; stroke-linecap: round"/>
     </g>
     <g id="line2d_4"/>
     <g id="text_2">
      <!-- $\mathdefault{0.5}$ -->
      <g style="fill: #262626" transform="translate(124.704882 242.878498) scale(0.1 -0.1)">
       <defs>
        <path id="CMR17-35" d="M 730 3692 
C 794 3666 1056 3584 1325 3584 
C 1920 3584 2246 3911 2432 4100 
C 2432 4157 2432 4192 2394 4192 
C 2387 4192 2374 4192 2323 4163 
C 2099 4058 1837 3973 1517 3973 
C 1325 3973 1037 3999 723 4139 
C 653 4171 640 4171 634 4171 
C 602 4171 595 4164 595 4037 
L 595 2203 
C 595 2089 595 2057 659 2057 
C 691 2057 704 2070 736 2114 
C 941 2401 1222 2522 1542 2522 
C 1766 2522 2246 2382 2246 1289 
C 2246 1085 2246 715 2054 421 
C 1894 159 1645 25 1370 25 
C 947 25 518 320 403 814 
C 429 807 480 795 506 795 
C 589 795 749 840 749 1038 
C 749 1210 627 1280 506 1280 
C 358 1280 262 1190 262 1011 
C 262 454 704 -128 1382 -128 
C 2042 -128 2669 440 2669 1264 
C 2669 2030 2170 2624 1549 2624 
C 1222 2624 947 2503 730 2274 
L 730 3692 
z
" transform="scale(0.015625)"/>
       </defs>
       <use xlink:href="#CMR17-30" transform="scale(0.996264)"/>
       <use xlink:href="#CMMI12-3a" transform="translate(45.690477 0) scale(0.996264)"/>
       <use xlink:href="#CMR17-35" transform="translate(72.787654 0) scale(0.996264)"/>
      </g>
     </g>
    </g>
    <g id="xtick_3">
     <g id="line2d_5">
      <path d="M 196.104887 228.96 
L 196.104887 7.2 
" clip-path="url(#p56f3bf5c8a)" style="fill: none; stroke: #ffffff; stroke-linecap: round"/>
     </g>
     <g id="line2d_6"/>
     <g id="text_3">
      <!-- $\mathdefault{1.0}$ -->
      <g style="fill: #262626" transform="translate(189.739847 242.878498) scale(0.1 -0.1)">
       <defs>
        <path id="CMR17-31" d="M 1702 4058 
C 1702 4192 1696 4192 1606 4192 
C 1357 3916 979 3827 621 3827 
C 602 3827 570 3827 563 3808 
C 557 3795 557 3782 557 3648 
C 755 3648 1088 3686 1344 3839 
L 1344 461 
C 1344 236 1331 160 781 160 
L 589 160 
L 589 0 
C 896 0 1216 0 1523 0 
C 1830 0 2150 0 2458 0 
L 2458 160 
L 2266 160 
C 1715 160 1702 230 1702 458 
L 1702 4058 
z
" transform="scale(0.015625)"/>
       </defs>
       <use xlink:href="#CMR17-31" transform="scale(0.996264)"/>
       <use xlink:href="#CMMI12-3a" transform="translate(45.690477 0) scale(0.996264)"/>
       <use xlink:href="#CMR17-30" transform="translate(72.787654 0) scale(0.996264)"/>
      </g>
     </g>
    </g>
    <g id="xtick_4">
     <g id="line2d_7">
      <path d="M 261.139852 228.96 
L 261.139852 7.2 
" clip-path="url(#p56f3bf5c8a)" style="fill: none; stroke: #ffffff; stroke-linecap: round"/>
     </g>
     <g id="line2d_8"/>
     <g id="text_4">
      <!-- $\mathdefault{1.5}$ -->
      <g style="fill: #262626" transform="translate(254.774812 242.878498) scale(0.1 -0.1)">
       <use xlink:href="#CMR17-31" transform="scale(0.996264)"/>
       <use xlink:href="#CMMI12-3a" transform="translate(45.690477 0) scale(0.996264)"/>
       <use xlink:href="#CMR17-35" transform="translate(72.787654 0) scale(0.996264)"/>
      </g>
     </g>
    </g>
    <g id="xtick_5">
     <g id="line2d_9">
      <path d="M 326.174817 228.96 
L 326.174817 7.2 
" clip-path="url(#p56f3bf5c8a)" style="fill: none; stroke: #ffffff; stroke-linecap: round"/>
     </g>
     <g id="line2d_10"/>
     <g id="text_5">
      <!-- $\mathdefault{2.0}$ -->
      <g style="fill: #262626" transform="translate(319.809777 242.878498) scale(0.1 -0.1)">
       <defs>
        <path id="CMR17-32" d="M 2669 989 
L 2554 989 
C 2490 536 2438 459 2413 420 
C 2381 369 1920 369 1830 369 
L 602 369 
C 832 619 1280 1072 1824 1597 
C 2214 1967 2669 2402 2669 3035 
C 2669 3790 2067 4224 1395 4224 
C 691 4224 262 3604 262 3030 
C 262 2780 448 2748 525 2748 
C 589 2748 781 2787 781 3010 
C 781 3207 614 3264 525 3264 
C 486 3264 448 3258 422 3245 
C 544 3790 915 4058 1306 4058 
C 1862 4058 2227 3617 2227 3035 
C 2227 2479 1901 2000 1536 1584 
L 262 146 
L 262 0 
L 2515 0 
L 2669 989 
z
" transform="scale(0.015625)"/>
       </defs>
       <use xlink:href="#CMR17-32" transform="scale(0.996264)"/>
       <use xlink:href="#CMMI12-3a" transform="translate(45.690477 0) scale(0.996264)"/>
       <use xlink:href="#CMR17-30" transform="translate(72.787654 0) scale(0.996264)"/>
      </g>
     </g>
    </g>
    <g id="xtick_6">
     <g id="line2d_11">
      <path d="M 391.209782 228.96 
L 391.209782 7.2 
" clip-path="url(#p56f3bf5c8a)" style="fill: none; stroke: #ffffff; stroke-linecap: round"/>
     </g>
     <g id="line2d_12"/>
     <g id="text_6">
      <!-- $\mathdefault{2.5}$ -->
      <g style="fill: #262626" transform="translate(384.844742 242.878498) scale(0.1 -0.1)">
       <use xlink:href="#CMR17-32" transform="scale(0.996264)"/>
       <use xlink:href="#CMMI12-3a" transform="translate(45.690477 0) scale(0.996264)"/>
       <use xlink:href="#CMR17-35" transform="translate(72.787654 0) scale(0.996264)"/>
      </g>
     </g>
    </g>
    <g id="xtick_7">
     <g id="line2d_13">
      <path d="M 456.244747 228.96 
L 456.244747 7.2 
" clip-path="url(#p56f3bf5c8a)" style="fill: none; stroke: #ffffff; stroke-linecap: round"/>
     </g>
     <g id="line2d_14"/>
     <g id="text_7">
      <!-- $\mathdefault{3.0}$ -->
      <g style="fill: #262626" transform="translate(449.879707 242.878498) scale(0.1 -0.1)">
       <defs>
        <path id="CMR17-33" d="M 1414 2157 
C 1984 2157 2234 1662 2234 1090 
C 2234 320 1824 25 1453 25 
C 1114 25 563 194 390 693 
C 422 680 454 680 486 680 
C 640 680 755 782 755 948 
C 755 1133 614 1216 486 1216 
C 378 1216 211 1165 211 926 
C 211 335 787 -128 1466 -128 
C 2176 -128 2720 430 2720 1085 
C 2720 1707 2208 2157 1600 2227 
C 2086 2328 2554 2756 2554 3329 
C 2554 3820 2048 4179 1472 4179 
C 890 4179 378 3829 378 3329 
C 378 3110 544 3072 627 3072 
C 762 3072 877 3155 877 3321 
C 877 3486 762 3569 627 3569 
C 602 3569 570 3569 544 3557 
C 730 3959 1235 4032 1459 4032 
C 1683 4032 2106 3925 2106 3320 
C 2106 3143 2080 2828 1862 2550 
C 1670 2304 1453 2304 1242 2284 
C 1210 2284 1062 2269 1037 2269 
C 992 2263 966 2257 966 2208 
C 966 2163 973 2157 1101 2157 
L 1414 2157 
z
" transform="scale(0.015625)"/>
       </defs>
       <use xlink:href="#CMR17-33" transform="scale(0.996264)"/>
       <use xlink:href="#CMMI12-3a" transform="translate(45.690477 0) scale(0.996264)"/>
       <use xlink:href="#CMR17-30" transform="translate(72.787654 0) scale(0.996264)"/>
      </g>
     </g>
    </g>
    <g id="xtick_8">
     <g id="line2d_15">
      <path d="M 521.279712 228.96 
L 521.279712 7.2 
" clip-path="url(#p56f3bf5c8a)" style="fill: none; stroke: #ffffff; stroke-linecap: round"/>
     </g>
     <g id="line2d_16"/>
     <g id="text_8">
      <!-- $\mathdefault{3.5}$ -->
      <g style="fill: #262626" transform="translate(514.914672 242.878498) scale(0.1 -0.1)">
       <use xlink:href="#CMR17-33" transform="scale(0.996264)"/>
       <use xlink:href="#CMMI12-3a" transform="translate(45.690477 0) scale(0.996264)"/>
       <use xlink:href="#CMR17-35" transform="translate(72.787654 0) scale(0.996264)"/>
      </g>
     </g>
    </g>
    <g id="xtick_9">
     <g id="line2d_17">
      <path d="M 586.314677 228.96 
L 586.314677 7.2 
" clip-path="url(#p56f3bf5c8a)" style="fill: none; stroke: #ffffff; stroke-linecap: round"/>
     </g>
     <g id="line2d_18"/>
     <g id="text_9">
      <!-- $\mathdefault{4.0}$ -->
      <g style="fill: #262626" transform="translate(579.949637 242.878498) scale(0.1 -0.1)">
       <defs>
        <path id="CMR17-34" d="M 2150 4122 
C 2150 4256 2144 4256 2029 4256 
L 128 1254 
L 128 1088 
L 1779 1088 
L 1779 457 
C 1779 224 1766 160 1318 160 
L 1197 160 
L 1197 0 
C 1402 0 1747 0 1965 0 
C 2182 0 2528 0 2733 0 
L 2733 160 
L 2611 160 
C 2163 160 2150 224 2150 457 
L 2150 1088 
L 2803 1088 
L 2803 1254 
L 2150 1254 
L 2150 4122 
z
M 1798 3703 
L 1798 1254 
L 256 1254 
L 1798 3703 
z
" transform="scale(0.015625)"/>
       </defs>
       <use xlink:href="#CMR17-34" transform="scale(0.996264)"/>
       <use xlink:href="#CMMI12-3a" transform="translate(45.690477 0) scale(0.996264)"/>
       <use xlink:href="#CMR17-30" transform="translate(72.787654 0) scale(0.996264)"/>
      </g>
     </g>
    </g>
    <g id="text_10">
     <!-- time -->
     <g style="fill: #262626" transform="translate(309.595207 256.426023) scale(0.11 -0.11)">
      <defs>
       <path id="CMSS17-74" d="M 1069 2368 
L 1901 2368 
L 1901 2737 
L 1069 2737 
L 1069 3520 
L 614 3520 
L 614 2737 
L 109 2737 
L 109 2368 
L 602 2368 
L 602 749 
C 602 384 685 -64 1107 -64 
C 1427 -64 1722 25 2003 172 
L 1901 548 
C 1747 414 1562 337 1363 337 
C 1082 337 1069 696 1069 856 
L 1069 2368 
z
" transform="scale(0.015625)"/>
       <path id="CMSS17-69" d="M 979 4183 
L 442 4183 
L 442 3648 
L 979 3648 
L 979 4183 
z
M 947 2739 
L 474 2739 
L 474 0 
L 947 0 
L 947 2739 
z
" transform="scale(0.015625)"/>
       <path id="CMSS17-6d" d="M 4288 1877 
C 4288 2308 4179 2816 3462 2816 
C 2982 2816 2694 2516 2566 2331 
C 2451 2670 2182 2816 1798 2816 
C 1363 2816 1088 2568 941 2389 
L 941 2758 
L 474 2758 
L 474 0 
L 960 0 
L 960 1559 
C 960 1939 1101 2428 1555 2428 
C 2138 2428 2138 2016 2138 1829 
L 2138 0 
L 2624 0 
L 2624 1559 
C 2624 1939 2765 2428 3219 2428 
C 3802 2428 3802 2016 3802 1829 
L 3802 0 
L 4288 0 
L 4288 1877 
z
" transform="scale(0.015625)"/>
       <path id="CMSS17-65" d="M 2502 1377 
C 2502 1590 2490 2003 2285 2345 
C 2061 2713 1696 2816 1421 2816 
C 755 2816 192 2188 192 1375 
C 192 582 774 -64 1510 -64 
C 1798 -64 2150 19 2470 248 
C 2470 274 2458 414 2451 420 
C 2451 433 2432 630 2432 656 
C 2125 407 1773 325 1517 325 
C 1107 325 666 667 646 1377 
L 2502 1377 
z
M 698 1728 
C 781 2084 1062 2421 1421 2421 
C 1517 2421 1965 2421 2080 1728 
L 698 1728 
z
" transform="scale(0.015625)"/>
      </defs>
      <use xlink:href="#CMSS17-74" transform="scale(0.996264)"/>
      <use xlink:href="#CMSS17-69" transform="translate(33.831567 0) scale(0.996264)"/>
      <use xlink:href="#CMSS17-6d" transform="translate(56.01229 0) scale(0.996264)"/>
      <use xlink:href="#CMSS17-65" transform="translate(130.241544 0) scale(0.996264)"/>
     </g>
    </g>
   </g>
   <g id="matplotlib.axis_2">
    <g id="ytick_1">
     <g id="line2d_19">
      <path d="M 40.67132 218.88 
L 598.67132 218.88 
" clip-path="url(#p56f3bf5c8a)" style="fill: none; stroke: #ffffff; stroke-linecap: round"/>
     </g>
     <g id="line2d_20"/>
     <g id="text_11">
      <!-- $\mathdefault{0.5}$ -->
      <g style="fill: #262626" transform="translate(20.941241 222.339249) scale(0.1 -0.1)">
       <use xlink:href="#CMR17-30" transform="scale(0.996264)"/>
       <use xlink:href="#CMMI12-3a" transform="translate(45.690477 0) scale(0.996264)"/>
       <use xlink:href="#CMR17-35" transform="translate(72.787654 0) scale(0.996264)"/>
      </g>
     </g>
    </g>
    <g id="ytick_2">
     <g id="line2d_21">
      <path d="M 40.67132 178.559783 
L 598.67132 178.559783 
" clip-path="url(#p56f3bf5c8a)" style="fill: none; stroke: #ffffff; stroke-linecap: round"/>
     </g>
     <g id="line2d_22"/>
     <g id="text_12">
      <!-- $\mathdefault{0.6}$ -->
      <g style="fill: #262626" transform="translate(20.941241 182.019033) scale(0.1 -0.1)">
       <defs>
        <path id="CMR17-36" d="M 678 2176 
C 678 3690 1395 4032 1811 4032 
C 1946 4032 2272 4009 2400 3776 
C 2298 3776 2106 3776 2106 3553 
C 2106 3381 2246 3323 2336 3323 
C 2394 3323 2566 3348 2566 3560 
C 2566 3954 2246 4179 1805 4179 
C 1043 4179 243 3390 243 1984 
C 243 253 966 -128 1478 -128 
C 2099 -128 2688 427 2688 1283 
C 2688 2081 2170 2662 1517 2662 
C 1126 2662 838 2407 678 1960 
L 678 2176 
z
M 1478 25 
C 691 25 691 1200 691 1436 
C 691 1896 909 2560 1504 2560 
C 1613 2560 1926 2560 2138 2120 
C 2253 1870 2253 1609 2253 1289 
C 2253 944 2253 690 2118 434 
C 1978 171 1773 25 1478 25 
z
" transform="scale(0.015625)"/>
       </defs>
       <use xlink:href="#CMR17-30" transform="scale(0.996264)"/>
       <use xlink:href="#CMMI12-3a" transform="translate(45.690477 0) scale(0.996264)"/>
       <use xlink:href="#CMR17-36" transform="translate(72.787654 0) scale(0.996264)"/>
      </g>
     </g>
    </g>
    <g id="ytick_3">
     <g id="line2d_23">
      <path d="M 40.67132 138.239567 
L 598.67132 138.239567 
" clip-path="url(#p56f3bf5c8a)" style="fill: none; stroke: #ffffff; stroke-linecap: round"/>
     </g>
     <g id="line2d_24"/>
     <g id="text_13">
      <!-- $\mathdefault{0.7}$ -->
      <g style="fill: #262626" transform="translate(20.941241 141.698816) scale(0.1 -0.1)">
       <defs>
        <path id="CMR17-37" d="M 2886 3941 
L 2886 4081 
L 1382 4081 
C 634 4081 621 4165 595 4288 
L 480 4288 
L 294 3094 
L 410 3094 
C 429 3215 474 3540 550 3661 
C 589 3712 1062 3712 1171 3712 
L 2579 3712 
L 1869 2661 
C 1395 1954 1069 999 1069 165 
C 1069 89 1069 -128 1299 -128 
C 1530 -128 1530 89 1530 171 
L 1530 465 
C 1530 1508 1709 2196 2003 2636 
L 2886 3941 
z
" transform="scale(0.015625)"/>
       </defs>
       <use xlink:href="#CMR17-30" transform="scale(0.996264)"/>
       <use xlink:href="#CMMI12-3a" transform="translate(45.690477 0) scale(0.996264)"/>
       <use xlink:href="#CMR17-37" transform="translate(72.787654 0) scale(0.996264)"/>
      </g>
     </g>
    </g>
    <g id="ytick_4">
     <g id="line2d_25">
      <path d="M 40.67132 97.91935 
L 598.67132 97.91935 
" clip-path="url(#p56f3bf5c8a)" style="fill: none; stroke: #ffffff; stroke-linecap: round"/>
     </g>
     <g id="line2d_26"/>
     <g id="text_14">
      <!-- $\mathdefault{0.8}$ -->
      <g style="fill: #262626" transform="translate(20.941241 101.378599) scale(0.1 -0.1)">
       <defs>
        <path id="CMR17-38" d="M 1741 2264 
C 2144 2467 2554 2773 2554 3263 
C 2554 3841 1990 4179 1472 4179 
C 890 4179 378 3759 378 3180 
C 378 3021 416 2747 666 2505 
C 730 2442 998 2251 1171 2130 
C 883 1983 211 1634 211 934 
C 211 279 838 -128 1459 -128 
C 2144 -128 2720 362 2720 1010 
C 2720 1590 2330 1857 2074 2029 
L 1741 2264 
z
M 902 2822 
C 851 2854 595 3051 595 3351 
C 595 3739 998 4032 1459 4032 
C 1965 4032 2336 3676 2336 3262 
C 2336 2669 1670 2331 1638 2331 
C 1632 2331 1626 2331 1574 2370 
L 902 2822 
z
M 2080 1519 
C 2176 1449 2483 1240 2483 851 
C 2483 381 2010 25 1472 25 
C 890 25 448 438 448 940 
C 448 1443 838 1862 1280 2060 
L 2080 1519 
z
" transform="scale(0.015625)"/>
       </defs>
       <use xlink:href="#CMR17-30" transform="scale(0.996264)"/>
       <use xlink:href="#CMMI12-3a" transform="translate(45.690477 0) scale(0.996264)"/>
       <use xlink:href="#CMR17-38" transform="translate(72.787654 0) scale(0.996264)"/>
      </g>
     </g>
    </g>
    <g id="ytick_5">
     <g id="line2d_27">
      <path d="M 40.67132 57.599134 
L 598.67132 57.599134 
" clip-path="url(#p56f3bf5c8a)" style="fill: none; stroke: #ffffff; stroke-linecap: round"/>
     </g>
     <g id="line2d_28"/>
     <g id="text_15">
      <!-- $\mathdefault{0.9}$ -->
      <g style="fill: #262626" transform="translate(20.941241 61.058383) scale(0.1 -0.1)">
       <defs>
        <path id="CMR17-39" d="M 2253 1864 
C 2253 464 1670 31 1190 31 
C 1043 31 685 31 538 294 
C 704 268 826 357 826 518 
C 826 692 685 749 595 749 
C 538 749 365 723 365 506 
C 365 71 742 -128 1203 -128 
C 1939 -128 2688 674 2688 2073 
C 2688 3817 1971 4179 1485 4179 
C 851 4179 243 3628 243 2778 
C 243 1991 762 1408 1414 1408 
C 1952 1408 2189 1903 2253 2112 
L 2253 1864 
z
M 1427 1510 
C 1254 1510 1011 1542 813 1922 
C 678 2169 678 2461 678 2771 
C 678 3146 678 3405 858 3684 
C 947 3817 1114 4032 1485 4032 
C 2240 4032 2240 2885 2240 2632 
C 2240 2182 2035 1510 1427 1510 
z
" transform="scale(0.015625)"/>
       </defs>
       <use xlink:href="#CMR17-30" transform="scale(0.996264)"/>
       <use xlink:href="#CMMI12-3a" transform="translate(45.690477 0) scale(0.996264)"/>
       <use xlink:href="#CMR17-39" transform="translate(72.787654 0) scale(0.996264)"/>
      </g>
     </g>
    </g>
    <g id="ytick_6">
     <g id="line2d_29">
      <path d="M 40.67132 17.278917 
L 598.67132 17.278917 
" clip-path="url(#p56f3bf5c8a)" style="fill: none; stroke: #ffffff; stroke-linecap: round"/>
     </g>
     <g id="line2d_30"/>
     <g id="text_16">
      <!-- $\mathdefault{1.0}$ -->
      <g style="fill: #262626" transform="translate(20.941241 20.738166) scale(0.1 -0.1)">
       <use xlink:href="#CMR17-31" transform="scale(0.996264)"/>
       <use xlink:href="#CMMI12-3a" transform="translate(45.690477 0) scale(0.996264)"/>
       <use xlink:href="#CMR17-30" transform="translate(72.787654 0) scale(0.996264)"/>
      </g>
     </g>
    </g>
    <g id="text_17">
     <!-- fid -->
     <g style="fill: #262626" transform="translate(14.810347 123.848658) rotate(-90) scale(0.11 -0.11)">
      <defs>
       <path id="CMSS17-c" d="M 2752 4416 
L 2240 4416 
L 2240 3906 
L 2752 3906 
L 2752 4416 
z
M 2733 2737 
L 2259 2737 
L 2259 0 
L 2733 0 
L 2733 2737 
z
M 1075 2368 
L 1773 2368 
L 1773 2737 
L 1062 2737 
L 1062 3578 
C 1062 3919 1216 4092 1421 4092 
C 1542 4092 1664 4056 1773 3992 
L 1773 4410 
C 1722 4428 1574 4480 1421 4480 
C 941 4480 602 3993 602 3372 
L 602 2737 
L 160 2737 
L 160 2368 
L 602 2368 
L 602 0 
L 1075 0 
L 1075 2368 
z
" transform="scale(0.015625)"/>
       <path id="CMSS17-64" d="M 2611 4416 
L 2138 4416 
L 2138 2438 
C 1939 2603 1613 2756 1254 2756 
C 672 2756 211 2131 211 1347 
C 211 562 666 -64 1235 -64 
C 1677 -64 1971 172 2125 306 
L 2125 -13 
L 2611 -13 
L 2611 4416 
z
M 2125 836 
C 2125 747 2125 653 1926 482 
C 1798 375 1645 325 1498 325 
C 1152 325 698 576 698 1340 
C 698 2134 1210 2368 1562 2368 
C 1798 2368 1990 2254 2125 2065 
L 2125 836 
z
" transform="scale(0.015625)"/>
      </defs>
      <use xlink:href="#CMSS17-c" transform="scale(0.996264)"/>
      <use xlink:href="#CMSS17-64" transform="translate(50.126737 0) scale(0.996264)"/>
     </g>
    </g>
   </g>
   <g id="line2d_31">
    <path d="M 66.034957 218.88 
L 79.04195 218.876624 
L 92.048943 218.703509 
L 105.055936 217.390154 
L 118.062929 213.041448 
L 131.069922 203.835949 
L 144.076915 188.978436 
L 157.083908 169.006096 
L 170.090901 145.616375 
L 183.097894 121.167357 
L 196.104887 97.984044 
L 209.11188 77.752515 
L 222.118873 61.26553 
L 235.125866 48.538659 
L 248.132859 39.110838 
L 261.139852 32.33518 
L 274.146845 27.57 
L 287.153838 24.269335 
L 300.160831 22.007019 
L 313.167824 20.467538 
L 326.174817 19.425062 
L 339.18181 18.721478 
L 352.188803 18.24768 
L 365.195796 17.929103 
L 378.202789 17.715112 
L 391.209782 17.57147 
L 404.216775 17.475095 
L 417.223768 17.410452 
L 430.230761 17.367102 
L 443.237754 17.338036 
L 456.244747 17.318549 
L 469.25174 17.305484 
L 482.258733 17.296726 
L 495.265726 17.290855 
L 508.272719 17.286919 
L 521.279712 17.284281 
L 534.286705 17.282513 
L 547.293698 17.281327 
L 560.300691 17.280533 
L 573.307684 17.28 
" clip-path="url(#p56f3bf5c8a)" style="fill: none; stroke: #4c72b0; stroke-width: 1.75; stroke-linecap: round"/>
   </g>
   <g id="line2d_32">
    <path d="M 66.034957 218.88 
L 79.04195 218.88 
L 92.048943 218.879912 
L 105.055936 218.872922 
L 118.062929 218.759234 
L 131.069922 218.013571 
L 144.076915 215.288147 
L 157.083908 208.615971 
L 170.090901 196.356971 
L 183.097894 178.175512 
L 196.104887 155.362195 
L 209.11188 130.376151 
L 222.118873 105.933336 
L 235.125866 84.154142 
L 248.132859 66.1568 
L 261.139852 52.133252 
L 274.146845 41.679135 
L 287.153838 34.133904 
L 300.160831 28.812304 
L 313.167824 25.119131 
L 326.174817 22.584512 
L 339.18181 20.858233 
L 352.188803 19.688585 
L 365.195796 18.898862 
L 378.202789 18.366918 
L 391.209782 18.009181 
L 404.216775 17.768858 
L 417.223768 17.607528 
L 430.230761 17.499278 
L 443.237754 17.426669 
L 456.244747 17.377976 
L 469.25174 17.345326 
L 482.258733 17.323436 
L 495.265726 17.30876 
L 508.272719 17.298922 
L 521.279712 17.292327 
L 534.286705 17.287906 
L 547.293698 17.284943 
L 560.300691 17.282956 
L 573.307684 17.281625 
" clip-path="url(#p56f3bf5c8a)" style="fill: none; stroke: #55a868; stroke-width: 1.75; stroke-linecap: round"/>
   </g>
   <g id="patch_3">
    <path d="M 40.67132 228.96 
L 40.67132 7.2 
" style="fill: none"/>
   </g>
   <g id="patch_4">
    <path d="M 598.67132 228.96 
L 598.67132 7.2 
" style="fill: none"/>
   </g>
   <g id="patch_5">
    <path d="M 40.67132 228.96 
L 598.67132 228.96 
" style="fill: none"/>
   </g>
   <g id="patch_6">
    <path d="M 40.67132 7.2 
L 598.67132 7.2 
" style="fill: none"/>
   </g>
   <g id="legend_1">
    <g id="line2d_33">
     <path d="M 49.67132 19.7 
L 59.67132 19.7 
L 69.67132 19.7 
" style="fill: none; stroke: #4c72b0; stroke-width: 1.75; stroke-linecap: round"/>
    </g>
    <g id="text_18">
     <!-- N=4 -->
     <g style="fill: #262626" transform="translate(77.67132 23.2) scale(0.1 -0.1)">
      <defs>
       <path id="CMSS17-4e" d="M 1466 4180 
L 1350 4416 
L 563 4416 
L 563 0 
L 1062 0 
L 1062 3926 
L 1069 3932 
C 1114 3817 1139 3760 1402 3194 
L 2771 236 
L 2886 0 
L 3674 0 
L 3674 4416 
L 3174 4416 
L 3174 490 
L 3168 483 
C 3123 598 3098 655 2835 1221 
L 1466 4180 
z
" transform="scale(0.015625)"/>
       <path id="CMSS17-3d" d="M 4147 2017 
C 4243 2017 4339 2017 4339 2125 
C 4339 2240 4230 2240 4122 2240 
L 550 2240 
C 442 2240 333 2240 333 2125 
C 333 2017 429 2017 525 2017 
L 4147 2017 
z
M 4122 896 
C 4230 896 4339 896 4339 1011 
C 4339 1119 4243 1119 4147 1119 
L 525 1119 
C 429 1119 333 1119 333 1011 
C 333 896 442 896 550 896 
L 4122 896 
z
" transform="scale(0.015625)"/>
       <path id="CMSS17-34" d="M 2253 1088 
L 2835 1088 
L 2835 1477 
L 2253 1477 
L 2253 4192 
L 1690 4192 
L 166 1477 
L 166 1088 
L 1747 1088 
L 1747 0 
L 2253 0 
L 2253 1088 
z
M 659 1477 
C 1030 2127 1766 3439 1766 3885 
L 1766 1477 
L 659 1477 
z
" transform="scale(0.015625)"/>
      </defs>
      <use xlink:href="#CMSS17-4e" transform="scale(0.996264)"/>
      <use xlink:href="#CMSS17-3d" transform="translate(66.061519 0) scale(0.996264)"/>
      <use xlink:href="#CMSS17-34" transform="translate(138.929454 0) scale(0.996264)"/>
     </g>
    </g>
    <g id="line2d_34">
     <path d="M 49.67132 33.637178 
L 59.67132 33.637178 
L 69.67132 33.637178 
" style="fill: none; stroke: #55a868; stroke-width: 1.75; stroke-linecap: round"/>
    </g>
    <g id="text_19">
     <!-- N=7 -->
     <g style="fill: #262626" transform="translate(77.67132 37.137178) scale(0.1 -0.1)">
      <defs>
       <path id="CMSS17-37" d="M 1389 3776 
C 1466 3776 1542 3776 1619 3776 
L 2355 3776 
C 1440 2711 915 1365 915 -32 
L 1427 -32 
C 1427 1323 1875 2696 2752 3795 
L 2752 4209 
L 250 4209 
L 250 3776 
L 1389 3776 
z
" transform="scale(0.015625)"/>
      </defs>
      <use xlink:href="#CMSS17-4e" transform="scale(0.996264)"/>
      <use xlink:href="#CMSS17-3d" transform="translate(66.061519 0) scale(0.996264)"/>
      <use xlink:href="#CMSS17-37" transform="translate(138.929454 0) scale(0.996264)"/>
     </g>
    </g>
   </g>
  </g>
 </g>
 <defs>
  <clipPath id="p56f3bf5c8a">
   <rect x="40.67132" y="7.2" width="558" height="221.76"/>
  </clipPath>
 </defs>
</svg>
