<?xml version="1.0" encoding="utf-8" standalone="no"?>
<!DOCTYPE svg PUBLIC "-//W3C//DTD SVG 1.1//EN"
  "http://www.w3.org/Graphics/SVG/1.1/DTD/svg11.dtd">
<svg xmlns:xlink="http://www.w3.org/1999/xlink" width="605.87132pt" height="280.059098pt" viewBox="0 0 605.87132 280.059098" xmlns="http://www.w3.org/2000/svg" version="1.1">
 <metadata>
  <rdf:RDF xmlns:dc="http://purl.org/dc/elements/1.1/" xmlns:cc="http://creativecommons.org/ns#" xmlns:rdf="http://www.w3.org/1999/02/22-rdf-syntax-ns#">
   <cc:Work>
    <dc:type rdf:resource="http://purl.org/dc/dcmitype/StillImage"/>
    <dc:date>2023-11-27T22:45:54.910896</dc:date>
    <dc:format>image/svg+xml</dc:format>
    <dc:creator>
     <cc:Agent>
      <dc:title>Matplotlib v3.8.1, https://matplotlib.org/</dc:title>
     </cc:Agent>
    </dc:creator>
   </cc:Work>
  </rdf:RDF>
 </metadata>
 <defs>
  <style type="text/css">*{stroke-linejoin: round; stroke-linecap: butt}</style>
 </defs>
 <g id="figure_1">
  <g id="patch_1">
   <path d="M 0 280.059098 
L 605.87132 280.059098 
L 605.87132 0 
L 0 0 
z
" style="fill: #ffffff"/>
  </g>
  <g id="axes_1">
   <g id="patch_2">
    <path d="M 40.67132 243.26218 
L 598.67132 243.26218 
L 598.67132 21.50218 
L 40.67132 21.50218 
z
" style="fill: #eaeaf2"/>
   </g>
   <g id="matplotlib.axis_1">
    <g id="xtick_1">
     <g id="line2d_1">
      <path d="M 66.034957 243.26218 
L 66.034957 21.50218 
" clip-path="url(#p6bb502ad23)" style="fill: none; stroke: #ffffff; stroke-linecap: round"/>
     </g>
     <g id="line2d_2"/>
     <g id="text_1">
      <!-- $\mathdefault{0.0}$ -->
      <g style="fill: #262626" transform="translate(59.669917 257.180678) scale(0.1 -0.1)">
       <defs>
        <path id="CMR17-30" d="M 2688 2025 
C 2688 2416 2682 3080 2413 3591 
C 2176 4039 1798 4198 1466 4198 
C 1158 4198 768 4058 525 3597 
C 269 3118 243 2524 243 2025 
C 243 1661 250 1106 448 619 
C 723 -39 1216 -128 1466 -128 
C 1760 -128 2208 -7 2470 600 
C 2662 1042 2688 1559 2688 2025 
z
M 1466 -26 
C 1056 -26 813 325 723 812 
C 653 1188 653 1738 653 2096 
C 653 2588 653 2997 736 3387 
C 858 3929 1216 4096 1466 4096 
C 1728 4096 2067 3923 2189 3400 
C 2272 3036 2278 2607 2278 2096 
C 2278 1680 2278 1169 2202 792 
C 2067 95 1690 -26 1466 -26 
z
" transform="scale(0.015625)"/>
        <path id="CMMI12-3a" d="M 1178 307 
C 1178 492 1024 619 870 619 
C 685 619 557 466 557 313 
C 557 128 710 0 864 0 
C 1050 0 1178 153 1178 307 
z
" transform="scale(0.015625)"/>
       </defs>
       <use xlink:href="#CMR17-30" transform="scale(0.996264)"/>
       <use xlink:href="#CMMI12-3a" transform="translate(45.690477 0) scale(0.996264)"/>
       <use xlink:href="#CMR17-30" transform="translate(72.787654 0) scale(0.996264)"/>
      </g>
     </g>
    </g>
    <g id="xtick_2">
     <g id="line2d_3">
      <path d="M 168.514296 243.26218 
L 168.514296 21.50218 
" clip-path="url(#p6bb502ad23)" style="fill: none; stroke: #ffffff; stroke-linecap: round"/>
     </g>
     <g id="line2d_4"/>
     <g id="text_2">
      <!-- $\mathdefault{0.2}$ -->
      <g style="fill: #262626" transform="translate(162.149256 257.180678) scale(0.1 -0.1)">
       <defs>
        <path id="CMR17-32" d="M 2669 989 
L 2554 989 
C 2490 536 2438 459 2413 420 
C 2381 369 1920 369 1830 369 
L 602 369 
C 832 619 1280 1072 1824 1597 
C 2214 1967 2669 2402 2669 3035 
C 2669 3790 2067 4224 1395 4224 
C 691 4224 262 3604 262 3030 
C 262 2780 448 2748 525 2748 
C 589 2748 781 2787 781 3010 
C 781 3207 614 3264 525 3264 
C 486 3264 448 3258 422 3245 
C 544 3790 915 4058 1306 4058 
C 1862 4058 2227 3617 2227 3035 
C 2227 2479 1901 2000 1536 1584 
L 262 146 
L 262 0 
L 2515 0 
L 2669 989 
z
" transform="scale(0.015625)"/>
       </defs>
       <use xlink:href="#CMR17-30" transform="scale(0.996264)"/>
       <use xlink:href="#CMMI12-3a" transform="translate(45.690477 0) scale(0.996264)"/>
       <use xlink:href="#CMR17-32" transform="translate(72.787654 0) scale(0.996264)"/>
      </g>
     </g>
    </g>
    <g id="xtick_3">
     <g id="line2d_5">
      <path d="M 270.993634 243.26218 
L 270.993634 21.50218 
" clip-path="url(#p6bb502ad23)" style="fill: none; stroke: #ffffff; stroke-linecap: round"/>
     </g>
     <g id="line2d_6"/>
     <g id="text_3">
      <!-- $\mathdefault{0.4}$ -->
      <g style="fill: #262626" transform="translate(264.628595 257.180678) scale(0.1 -0.1)">
       <defs>
        <path id="CMR17-34" d="M 2150 4122 
C 2150 4256 2144 4256 2029 4256 
L 128 1254 
L 128 1088 
L 1779 1088 
L 1779 457 
C 1779 224 1766 160 1318 160 
L 1197 160 
L 1197 0 
C 1402 0 1747 0 1965 0 
C 2182 0 2528 0 2733 0 
L 2733 160 
L 2611 160 
C 2163 160 2150 224 2150 457 
L 2150 1088 
L 2803 1088 
L 2803 1254 
L 2150 1254 
L 2150 4122 
z
M 1798 3703 
L 1798 1254 
L 256 1254 
L 1798 3703 
z
" transform="scale(0.015625)"/>
       </defs>
       <use xlink:href="#CMR17-30" transform="scale(0.996264)"/>
       <use xlink:href="#CMMI12-3a" transform="translate(45.690477 0) scale(0.996264)"/>
       <use xlink:href="#CMR17-34" transform="translate(72.787654 0) scale(0.996264)"/>
      </g>
     </g>
    </g>
    <g id="xtick_4">
     <g id="line2d_7">
      <path d="M 373.472973 243.26218 
L 373.472973 21.50218 
" clip-path="url(#p6bb502ad23)" style="fill: none; stroke: #ffffff; stroke-linecap: round"/>
     </g>
     <g id="line2d_8"/>
     <g id="text_4">
      <!-- $\mathdefault{0.6}$ -->
      <g style="fill: #262626" transform="translate(367.107934 257.180678) scale(0.1 -0.1)">
       <defs>
        <path id="CMR17-36" d="M 678 2176 
C 678 3690 1395 4032 1811 4032 
C 1946 4032 2272 4009 2400 3776 
C 2298 3776 2106 3776 2106 3553 
C 2106 3381 2246 3323 2336 3323 
C 2394 3323 2566 3348 2566 3560 
C 2566 3954 2246 4179 1805 4179 
C 1043 4179 243 3390 243 1984 
C 243 253 966 -128 1478 -128 
C 2099 -128 2688 427 2688 1283 
C 2688 2081 2170 2662 1517 2662 
C 1126 2662 838 2407 678 1960 
L 678 2176 
z
M 1478 25 
C 691 25 691 1200 691 1436 
C 691 1896 909 2560 1504 2560 
C 1613 2560 1926 2560 2138 2120 
C 2253 1870 2253 1609 2253 1289 
C 2253 944 2253 690 2118 434 
C 1978 171 1773 25 1478 25 
z
" transform="scale(0.015625)"/>
       </defs>
       <use xlink:href="#CMR17-30" transform="scale(0.996264)"/>
       <use xlink:href="#CMMI12-3a" transform="translate(45.690477 0) scale(0.996264)"/>
       <use xlink:href="#CMR17-36" transform="translate(72.787654 0) scale(0.996264)"/>
      </g>
     </g>
    </g>
    <g id="xtick_5">
     <g id="line2d_9">
      <path d="M 475.952312 243.26218 
L 475.952312 21.50218 
" clip-path="url(#p6bb502ad23)" style="fill: none; stroke: #ffffff; stroke-linecap: round"/>
     </g>
     <g id="line2d_10"/>
     <g id="text_5">
      <!-- $\mathdefault{0.8}$ -->
      <g style="fill: #262626" transform="translate(469.587273 257.180678) scale(0.1 -0.1)">
       <defs>
        <path id="CMR17-38" d="M 1741 2264 
C 2144 2467 2554 2773 2554 3263 
C 2554 3841 1990 4179 1472 4179 
C 890 4179 378 3759 378 3180 
C 378 3021 416 2747 666 2505 
C 730 2442 998 2251 1171 2130 
C 883 1983 211 1634 211 934 
C 211 279 838 -128 1459 -128 
C 2144 -128 2720 362 2720 1010 
C 2720 1590 2330 1857 2074 2029 
L 1741 2264 
z
M 902 2822 
C 851 2854 595 3051 595 3351 
C 595 3739 998 4032 1459 4032 
C 1965 4032 2336 3676 2336 3262 
C 2336 2669 1670 2331 1638 2331 
C 1632 2331 1626 2331 1574 2370 
L 902 2822 
z
M 2080 1519 
C 2176 1449 2483 1240 2483 851 
C 2483 381 2010 25 1472 25 
C 890 25 448 438 448 940 
C 448 1443 838 1862 1280 2060 
L 2080 1519 
z
" transform="scale(0.015625)"/>
       </defs>
       <use xlink:href="#CMR17-30" transform="scale(0.996264)"/>
       <use xlink:href="#CMMI12-3a" transform="translate(45.690477 0) scale(0.996264)"/>
       <use xlink:href="#CMR17-38" transform="translate(72.787654 0) scale(0.996264)"/>
      </g>
     </g>
    </g>
    <g id="xtick_6">
     <g id="line2d_11">
      <path d="M 578.431651 243.26218 
L 578.431651 21.50218 
" clip-path="url(#p6bb502ad23)" style="fill: none; stroke: #ffffff; stroke-linecap: round"/>
     </g>
     <g id="line2d_12"/>
     <g id="text_6">
      <!-- $\mathdefault{1.0}$ -->
      <g style="fill: #262626" transform="translate(572.066611 257.180678) scale(0.1 -0.1)">
       <defs>
        <path id="CMR17-31" d="M 1702 4058 
C 1702 4192 1696 4192 1606 4192 
C 1357 3916 979 3827 621 3827 
C 602 3827 570 3827 563 3808 
C 557 3795 557 3782 557 3648 
C 755 3648 1088 3686 1344 3839 
L 1344 461 
C 1344 236 1331 160 781 160 
L 589 160 
L 589 0 
C 896 0 1216 0 1523 0 
C 1830 0 2150 0 2458 0 
L 2458 160 
L 2266 160 
C 1715 160 1702 230 1702 458 
L 1702 4058 
z
" transform="scale(0.015625)"/>
       </defs>
       <use xlink:href="#CMR17-31" transform="scale(0.996264)"/>
       <use xlink:href="#CMMI12-3a" transform="translate(45.690477 0) scale(0.996264)"/>
       <use xlink:href="#CMR17-30" transform="translate(72.787654 0) scale(0.996264)"/>
      </g>
     </g>
    </g>
    <g id="text_7">
     <!-- Gate Error Prob -->
     <g style="fill: #262626" transform="translate(282.898034 270.728203) scale(0.11 -0.11)">
      <defs>
       <path id="CMSS17-47" d="M 3610 1856 
L 2336 1856 
L 2336 1461 
L 3123 1461 
L 3123 471 
C 2874 401 2618 350 2362 350 
C 1466 350 934 1301 934 2200 
C 934 3095 1491 4032 2362 4032 
C 2854 4032 3130 3881 3469 3627 
L 3552 4134 
C 3130 4351 2867 4440 2387 4440 
C 1146 4440 397 3324 397 2182 
C 397 1090 1152 -64 2349 -64 
C 2797 -64 3213 51 3610 248 
L 3610 1856 
z
" transform="scale(0.015625)"/>
       <path id="CMSS17-61" d="M 2406 1791 
C 2406 2392 1978 2808 1402 2808 
C 1120 2808 813 2757 461 2553 
L 499 2135 
C 659 2248 934 2432 1395 2432 
C 1722 2432 1920 2180 1920 1782 
L 1920 1536 
C 896 1536 256 1238 256 726 
C 256 461 416 -64 947 -64 
C 1043 -64 1562 -64 1933 217 
L 1933 -19 
L 2406 -19 
L 2406 1791 
z
M 1920 816 
C 1920 701 1920 548 1728 434 
C 1562 325 1350 325 1261 325 
C 941 325 723 511 723 744 
C 723 1211 1722 1211 1920 1211 
L 1920 816 
z
" transform="scale(0.015625)"/>
       <path id="CMSS17-74" d="M 1069 2368 
L 1901 2368 
L 1901 2737 
L 1069 2737 
L 1069 3520 
L 614 3520 
L 614 2737 
L 109 2737 
L 109 2368 
L 602 2368 
L 602 749 
C 602 384 685 -64 1107 -64 
C 1427 -64 1722 25 2003 172 
L 1901 548 
C 1747 414 1562 337 1363 337 
C 1082 337 1069 696 1069 856 
L 1069 2368 
z
" transform="scale(0.015625)"/>
       <path id="CMSS17-65" d="M 2502 1377 
C 2502 1590 2490 2003 2285 2345 
C 2061 2713 1696 2816 1421 2816 
C 755 2816 192 2188 192 1375 
C 192 582 774 -64 1510 -64 
C 1798 -64 2150 19 2470 248 
C 2470 274 2458 414 2451 420 
C 2451 433 2432 630 2432 656 
C 2125 407 1773 325 1517 325 
C 1107 325 666 667 646 1377 
L 2502 1377 
z
M 698 1728 
C 781 2084 1062 2421 1421 2421 
C 1517 2421 1965 2421 2080 1728 
L 698 1728 
z
" transform="scale(0.015625)"/>
       <path id="CMSS17-45" d="M 1958 433 
C 1446 433 1216 433 1101 433 
L 1101 2107 
L 3085 2107 
L 3085 2496 
L 1101 2496 
L 1101 4009 
L 1926 4009 
C 2003 4009 2080 4009 2157 4009 
L 3251 4009 
L 3251 4416 
L 563 4416 
L 563 0 
L 3334 0 
L 3334 433 
L 1958 433 
z
" transform="scale(0.015625)"/>
       <path id="CMSS17-72" d="M 954 1363 
C 954 1965 1395 2368 1958 2368 
L 1958 2789 
C 1549 2789 1165 2585 934 2253 
L 934 2758 
L 480 2758 
L 480 0 
L 954 0 
L 954 1363 
z
" transform="scale(0.015625)"/>
       <path id="CMSS17-6f" d="M 2829 1356 
C 2829 2176 2221 2816 1504 2816 
C 768 2816 173 2157 173 1356 
C 173 544 787 -64 1498 -64 
C 2227 -64 2829 563 2829 1356 
z
M 1504 337 
C 1050 337 659 709 659 1408 
C 659 2151 1114 2427 1498 2427 
C 1914 2427 2342 2126 2342 1408 
C 2342 683 1926 337 1504 337 
z
" transform="scale(0.015625)"/>
       <path id="CMSS17-50" d="M 2106 1856 
C 2874 1856 3501 2453 3501 3158 
C 3501 3850 2899 4453 2067 4453 
L 570 4453 
L 570 0 
L 1107 0 
L 1107 1856 
L 2106 1856 
z
M 1926 4096 
C 2669 4096 2995 3627 2995 3157 
C 2995 2720 2694 2226 1926 2226 
L 1094 2226 
L 1094 4096 
L 1926 4096 
z
" transform="scale(0.015625)"/>
       <path id="CMSS17-62" d="M 954 4416 
L 480 4416 
L 480 -13 
L 966 -13 
L 966 274 
C 1210 38 1504 -64 1766 -64 
C 2381 -64 2880 549 2880 1352 
C 2880 2086 2496 2756 1926 2756 
C 1523 2756 1165 2591 954 2419 
L 954 4416 
z
M 966 2046 
C 1107 2222 1306 2368 1587 2368 
C 1965 2368 2394 2097 2394 1352 
C 2394 558 1882 325 1530 325 
C 1402 325 1267 356 1139 464 
C 966 615 966 709 966 797 
L 966 2046 
z
" transform="scale(0.015625)"/>
      </defs>
      <use xlink:href="#CMSS17-47" transform="scale(0.996264)"/>
      <use xlink:href="#CMSS17-61" transform="translate(62.458226 0) scale(0.996264)"/>
      <use xlink:href="#CMSS17-74" transform="translate(107.380146 0) scale(0.996264)"/>
      <use xlink:href="#CMSS17-65" transform="translate(141.211713 0) scale(0.996264)"/>
      <use xlink:href="#CMSS17-45" transform="translate(214.079648 0) scale(0.996264)"/>
      <use xlink:href="#CMSS17-72" transform="translate(269.971661 0) scale(0.996264)"/>
      <use xlink:href="#CMSS17-72" transform="translate(301.881433 0) scale(0.996264)"/>
      <use xlink:href="#CMSS17-6f" transform="translate(333.791206 0) scale(0.996264)"/>
      <use xlink:href="#CMSS17-72" transform="translate(378.032376 0) scale(0.996264)"/>
      <use xlink:href="#CMSS17-50" transform="translate(441.171261 0) scale(0.996264)"/>
      <use xlink:href="#CMSS17-72" transform="translate(500.906847 0) scale(0.996264)"/>
      <use xlink:href="#CMSS17-6f" transform="translate(532.81662 0) scale(0.996264)"/>
      <use xlink:href="#CMSS17-62" transform="translate(579.660243 0) scale(0.996264)"/>
     </g>
    </g>
   </g>
   <g id="matplotlib.axis_2">
    <g id="ytick_1">
     <g id="line2d_13">
      <path d="M 40.67132 203.793567 
L 598.67132 203.793567 
" clip-path="url(#p6bb502ad23)" style="fill: none; stroke: #ffffff; stroke-linecap: round"/>
     </g>
     <g id="line2d_14"/>
     <g id="text_8">
      <!-- $\mathdefault{0.2}$ -->
      <g style="fill: #262626" transform="translate(20.941241 207.252816) scale(0.1 -0.1)">
       <use xlink:href="#CMR17-30" transform="scale(0.996264)"/>
       <use xlink:href="#CMMI12-3a" transform="translate(45.690477 0) scale(0.996264)"/>
       <use xlink:href="#CMR17-32" transform="translate(72.787654 0) scale(0.996264)"/>
      </g>
     </g>
    </g>
    <g id="ytick_2">
     <g id="line2d_15">
      <path d="M 40.67132 160.74072 
L 598.67132 160.74072 
" clip-path="url(#p6bb502ad23)" style="fill: none; stroke: #ffffff; stroke-linecap: round"/>
     </g>
     <g id="line2d_16"/>
     <g id="text_9">
      <!-- $\mathdefault{0.4}$ -->
      <g style="fill: #262626" transform="translate(20.941241 164.199969) scale(0.1 -0.1)">
       <use xlink:href="#CMR17-30" transform="scale(0.996264)"/>
       <use xlink:href="#CMMI12-3a" transform="translate(45.690477 0) scale(0.996264)"/>
       <use xlink:href="#CMR17-34" transform="translate(72.787654 0) scale(0.996264)"/>
      </g>
     </g>
    </g>
    <g id="ytick_3">
     <g id="line2d_17">
      <path d="M 40.67132 117.687873 
L 598.67132 117.687873 
" clip-path="url(#p6bb502ad23)" style="fill: none; stroke: #ffffff; stroke-linecap: round"/>
     </g>
     <g id="line2d_18"/>
     <g id="text_10">
      <!-- $\mathdefault{0.6}$ -->
      <g style="fill: #262626" transform="translate(20.941241 121.147122) scale(0.1 -0.1)">
       <use xlink:href="#CMR17-30" transform="scale(0.996264)"/>
       <use xlink:href="#CMMI12-3a" transform="translate(45.690477 0) scale(0.996264)"/>
       <use xlink:href="#CMR17-36" transform="translate(72.787654 0) scale(0.996264)"/>
      </g>
     </g>
    </g>
    <g id="ytick_4">
     <g id="line2d_19">
      <path d="M 40.67132 74.635027 
L 598.67132 74.635027 
" clip-path="url(#p6bb502ad23)" style="fill: none; stroke: #ffffff; stroke-linecap: round"/>
     </g>
     <g id="line2d_20"/>
     <g id="text_11">
      <!-- $\mathdefault{0.8}$ -->
      <g style="fill: #262626" transform="translate(20.941241 78.094276) scale(0.1 -0.1)">
       <use xlink:href="#CMR17-30" transform="scale(0.996264)"/>
       <use xlink:href="#CMMI12-3a" transform="translate(45.690477 0) scale(0.996264)"/>
       <use xlink:href="#CMR17-38" transform="translate(72.787654 0) scale(0.996264)"/>
      </g>
     </g>
    </g>
    <g id="ytick_5">
     <g id="line2d_21">
      <path d="M 40.67132 31.58218 
L 598.67132 31.58218 
" clip-path="url(#p6bb502ad23)" style="fill: none; stroke: #ffffff; stroke-linecap: round"/>
     </g>
     <g id="line2d_22"/>
     <g id="text_12">
      <!-- $\mathdefault{1.0}$ -->
      <g style="fill: #262626" transform="translate(20.941241 35.041429) scale(0.1 -0.1)">
       <use xlink:href="#CMR17-31" transform="scale(0.996264)"/>
       <use xlink:href="#CMMI12-3a" transform="translate(45.690477 0) scale(0.996264)"/>
       <use xlink:href="#CMR17-30" transform="translate(72.787654 0) scale(0.996264)"/>
      </g>
     </g>
    </g>
    <g id="text_13">
     <!-- Fidality -->
     <g style="fill: #262626" transform="translate(14.810347 149.246733) rotate(-90) scale(0.11 -0.11)">
      <defs>
       <path id="CMSS17-46" d="M 2918 1984 
L 2918 2373 
L 1101 2373 
L 1101 3968 
L 1882 3968 
C 1958 3968 2035 3968 2112 3968 
L 3168 3968 
L 3168 4375 
L 563 4375 
L 563 -32 
L 1101 -32 
L 1101 1984 
L 2918 1984 
z
" transform="scale(0.015625)"/>
       <path id="CMSS17-69" d="M 979 4183 
L 442 4183 
L 442 3648 
L 979 3648 
L 979 4183 
z
M 947 2739 
L 474 2739 
L 474 0 
L 947 0 
L 947 2739 
z
" transform="scale(0.015625)"/>
       <path id="CMSS17-64" d="M 2611 4416 
L 2138 4416 
L 2138 2438 
C 1939 2603 1613 2756 1254 2756 
C 672 2756 211 2131 211 1347 
C 211 562 666 -64 1235 -64 
C 1677 -64 1971 172 2125 306 
L 2125 -13 
L 2611 -13 
L 2611 4416 
z
M 2125 836 
C 2125 747 2125 653 1926 482 
C 1798 375 1645 325 1498 325 
C 1152 325 698 576 698 1340 
C 698 2134 1210 2368 1562 2368 
C 1798 2368 1990 2254 2125 2065 
L 2125 836 
z
" transform="scale(0.015625)"/>
       <path id="CMSS17-6c" d="M 947 4416 
L 474 4416 
L 474 0 
L 947 0 
L 947 4416 
z
" transform="scale(0.015625)"/>
       <path id="CMSS17-79" d="M 2675 2752 
L 2176 2752 
C 1632 1294 1446 702 1434 383 
L 1427 383 
C 1408 696 1126 1460 902 2007 
L 602 2752 
L 83 2752 
L 1216 13 
C 1146 -178 1043 -465 1011 -529 
C 870 -885 774 -885 672 -885 
C 646 -885 442 -885 211 -809 
L 250 -1229 
C 410 -1261 570 -1280 685 -1280 
C 845 -1280 1165 -1280 1459 -497 
L 2675 2752 
z
" transform="scale(0.015625)"/>
      </defs>
      <use xlink:href="#CMSS17-46" transform="scale(0.996264)"/>
      <use xlink:href="#CMSS17-69" transform="translate(53.289559 0) scale(0.996264)"/>
      <use xlink:href="#CMSS17-64" transform="translate(75.470282 0) scale(0.996264)"/>
      <use xlink:href="#CMSS17-61" transform="translate(123.675225 0) scale(0.996264)"/>
      <use xlink:href="#CMSS17-6c" transform="translate(168.597146 0) scale(0.996264)"/>
      <use xlink:href="#CMSS17-69" transform="translate(190.777869 0) scale(0.996264)"/>
      <use xlink:href="#CMSS17-74" transform="translate(212.958592 0) scale(0.996264)"/>
      <use xlink:href="#CMSS17-79" transform="translate(244.187705 0) scale(0.996264)"/>
     </g>
    </g>
   </g>
   <g id="line2d_23">
    <path d="M 66.034957 31.58218 
L 71.158924 47.138384 
L 76.282891 56.1778 
L 81.406858 71.523786 
L 86.530824 79.091669 
L 91.654791 84.347143 
L 96.778758 94.647873 
L 101.902725 105.369041 
L 107.026692 102.215756 
L 112.150659 107.891669 
L 117.274626 120.504808 
L 122.398593 123.027435 
L 127.52256 126.601158 
L 132.646527 122.396778 
L 137.770494 126.18072 
L 142.894461 133.748603 
L 148.018428 128.913567 
L 153.142395 133.958822 
L 158.266362 138.58364 
L 163.390329 137.322326 
L 168.514296 135.430355 
L 173.638262 137.532545 
L 178.762229 138.58364 
L 183.886196 132.27707 
L 189.010163 143.628895 
L 194.13413 138.58364 
L 199.258097 138.793859 
L 204.382064 144.469771 
L 209.506031 136.691669 
L 214.629998 137.112107 
L 219.753965 137.112107 
L 224.877932 135.009917 
L 230.001899 135.220136 
L 235.125866 140.265391 
L 240.249833 139.844954 
L 245.3738 139.004078 
L 250.497767 142.788019 
L 255.621734 142.367581 
L 260.7457 142.157362 
L 265.869667 144.67999 
L 270.993634 142.788019 
L 276.117601 141.106267 
L 281.241568 141.106267 
L 286.365535 141.526705 
L 291.489502 141.106267 
L 296.613469 137.322326 
L 301.737436 137.742764 
L 306.861403 135.220136 
L 311.98537 143.418676 
L 317.109337 139.424516 
L 322.233304 141.526705 
L 327.357271 136.691669 
L 332.481238 142.5778 
L 337.605205 140.896048 
L 342.729172 134.589479 
L 347.853138 137.742764 
L 352.977105 139.004078 
L 358.101072 142.998238 
L 363.225039 139.424516 
L 368.349006 141.106267 
L 373.472973 139.634735 
L 378.59694 144.259552 
L 383.720907 142.998238 
L 388.844874 135.009917 
L 393.968841 136.271231 
L 399.092808 140.685829 
L 404.216775 137.532545 
L 409.340742 137.532545 
L 414.464709 132.27707 
L 419.588676 143.418676 
L 424.712643 144.049333 
L 429.83661 134.799698 
L 434.960577 136.271231 
L 440.084543 144.259552 
L 445.20851 141.316486 
L 450.332477 141.947143 
L 455.456444 141.526705 
L 460.580411 141.947143 
L 465.704378 138.58364 
L 470.828345 141.106267 
L 475.952312 141.106267 
L 481.076279 139.424516 
L 486.200246 144.469771 
L 491.324213 143.418676 
L 496.44818 145.941304 
L 501.572147 143.418676 
L 506.696114 148.463932 
L 511.820081 149.935464 
L 516.944048 154.139844 
L 522.068015 155.611377 
L 527.191981 157.503348 
L 532.315948 167.173421 
L 537.439915 173.690209 
L 542.563882 182.098968 
L 547.687849 185.252253 
L 552.811816 189.87707 
L 557.935783 197.444954 
L 563.05975 210.268311 
L 568.183717 219.938384 
L 573.307684 233.18218 
" clip-path="url(#p6bb502ad23)" style="fill: none; stroke: #4c72b0; stroke-width: 1.75; stroke-linecap: round"/>
   </g>
   <g id="patch_3">
    <path d="M 40.67132 243.26218 
L 40.67132 21.50218 
" style="fill: none"/>
   </g>
   <g id="patch_4">
    <path d="M 598.67132 243.26218 
L 598.67132 21.50218 
" style="fill: none"/>
   </g>
   <g id="patch_5">
    <path d="M 40.67132 243.26218 
L 598.67132 243.26218 
" style="fill: none"/>
   </g>
   <g id="patch_6">
    <path d="M 40.67132 21.50218 
L 598.67132 21.50218 
" style="fill: none"/>
   </g>
   <g id="text_14">
    <!-- Fidality Average of Braiding Op of Each Statevector as Function of Gate Error Probability -->
    <g style="fill: #262626" transform="translate(99.535594 15.50218) scale(0.12 -0.12)">
     <defs>
      <path id="CMSS17-41" d="M 2272 4416 
L 1722 4416 
L 166 0 
L 653 0 
L 1101 1280 
L 2816 1280 
L 3270 0 
L 3827 0 
L 2272 4416 
z
M 2694 1637 
L 1222 1637 
C 1530 2528 1914 3638 1958 3925 
L 1965 3925 
C 2010 3663 2138 3281 2246 2956 
L 2694 1637 
z
" transform="scale(0.015625)"/>
      <path id="CMSS17-76" d="M 2675 2752 
L 2176 2752 
L 1747 1556 
C 1613 1165 1421 627 1389 352 
L 1382 352 
C 1370 468 1318 634 1286 749 
C 1248 890 1197 1056 1158 1172 
L 595 2752 
L 83 2752 
L 1094 0 
L 1664 0 
L 2675 2752 
z
" transform="scale(0.015625)"/>
      <path id="CMSS17-67" d="M 2848 2808 
C 2483 2808 2170 2738 1914 2617 
C 1702 2777 1485 2808 1338 2808 
C 781 2808 358 2349 358 1814 
C 358 1468 550 1207 563 1195 
C 448 1035 384 863 384 672 
C 384 448 474 289 544 200 
C 211 -3 166 -314 166 -435 
C 166 -898 749 -1280 1498 -1280 
C 2253 -1280 2835 -898 2835 -428 
C 2835 448 1856 448 1587 448 
L 1069 448 
C 973 448 717 448 717 791 
C 717 921 774 1004 781 1010 
C 877 940 1075 832 1338 832 
C 1869 832 2310 1278 2310 1827 
C 2310 2132 2170 2355 2112 2432 
L 2131 2432 
C 2150 2432 2419 2432 2515 2432 
C 2720 2432 2739 2429 2918 2419 
L 2848 2808 
z
M 1338 1182 
C 1120 1182 813 1315 813 1823 
C 813 2375 1165 2464 1331 2464 
C 1549 2464 1856 2331 1856 1823 
C 1856 1271 1504 1182 1338 1182 
z
M 1581 -10 
C 1734 -10 2381 -10 2381 -442 
C 2381 -714 1984 -929 1504 -929 
C 1018 -929 621 -720 621 -435 
C 621 -403 621 -10 1062 -10 
L 1581 -10 
z
" transform="scale(0.015625)"/>
      <path id="CMSS17-66" d="M 1075 2368 
L 1722 2368 
L 1722 2737 
L 1062 2737 
L 1062 3559 
C 1062 4014 1408 4092 1606 4092 
C 1670 4092 1850 4092 2080 4009 
L 2080 4429 
C 1933 4461 1754 4480 1613 4480 
C 1018 4480 602 3993 602 3359 
L 602 2737 
L 160 2737 
L 160 2368 
L 602 2368 
L 602 0 
L 1075 0 
L 1075 2368 
z
" transform="scale(0.015625)"/>
      <path id="CMSS17-42" d="M 570 4416 
L 570 0 
L 2163 0 
C 3034 0 3667 574 3667 1200 
C 3667 1685 3251 2176 2502 2317 
C 3334 2558 3501 3040 3501 3313 
C 3501 3883 2874 4416 1997 4416 
L 570 4416 
z
M 1088 2496 
L 1088 4059 
L 1824 4059 
C 2483 4059 3002 3724 3002 3306 
C 3002 2926 2592 2496 1766 2496 
L 1088 2496 
z
M 1088 357 
L 1088 2107 
L 1939 2107 
C 2630 2107 3162 1679 3162 1206 
C 3162 772 2694 357 1984 357 
L 1088 357 
z
" transform="scale(0.015625)"/>
      <path id="CMSS17-6e" d="M 2618 1877 
C 2618 2283 2522 2816 1798 2816 
C 1389 2816 1120 2606 941 2389 
L 941 2758 
L 474 2758 
L 474 0 
L 960 0 
L 960 1559 
C 960 1964 1114 2428 1549 2428 
C 2112 2428 2131 2048 2131 1829 
L 2131 0 
L 2618 0 
L 2618 1877 
z
" transform="scale(0.015625)"/>
      <path id="CMSS17-4f" d="M 4096 2178 
C 4096 3503 3219 4497 2214 4497 
C 1210 4497 333 3497 333 2178 
C 333 847 1222 -128 2214 -128 
C 3206 -128 4096 847 4096 2178 
z
M 2214 273 
C 1510 273 870 1057 870 2261 
C 870 3433 1549 4096 2214 4096 
C 2880 4096 3558 3433 3558 2261 
C 3558 1051 2912 273 2214 273 
z
" transform="scale(0.015625)"/>
      <path id="CMSS17-70" d="M 966 333 
C 1178 129 1466 -5 1773 -5 
C 2368 -5 2880 603 2880 1412 
C 2880 2159 2496 2816 1946 2816 
C 1626 2816 1242 2702 954 2472 
L 954 2765 
L 480 2765 
L 480 -1216 
L 966 -1216 
L 966 333 
z
M 966 2100 
C 1018 2176 1235 2415 1587 2415 
C 2035 2415 2394 1960 2394 1412 
C 2394 787 1958 384 1530 384 
C 1402 384 1267 415 1139 523 
C 966 674 966 768 966 857 
L 966 2100 
z
" transform="scale(0.015625)"/>
      <path id="CMSS17-63" d="M 2464 2541 
C 2464 2585 2170 2714 2093 2739 
C 1882 2816 1613 2816 1542 2816 
C 710 2816 211 2093 211 1363 
C 211 595 768 -64 1517 -64 
C 1946 -64 2253 76 2502 242 
L 2464 664 
C 2189 453 1869 337 1523 337 
C 1024 337 698 774 698 1369 
C 698 1831 909 2414 1549 2414 
C 1901 2414 2099 2343 2394 2145 
L 2464 2541 
z
" transform="scale(0.015625)"/>
      <path id="CMSS17-68" d="M 2618 1891 
C 2618 2292 2522 2820 1798 2820 
C 1395 2820 1133 2623 947 2407 
L 947 4448 
L 474 4448 
L 474 32 
L 960 32 
L 960 1573 
C 960 1973 1114 2432 1549 2432 
C 2112 2432 2131 2056 2131 1839 
L 2131 32 
L 2618 32 
L 2618 1891 
z
" transform="scale(0.015625)"/>
      <path id="CMSS17-53" d="M 2797 4169 
C 2515 4334 2208 4480 1690 4480 
C 864 4480 333 3879 333 3266 
C 333 3025 403 2753 653 2475 
C 902 2196 1184 2121 1542 2033 
C 1690 1994 1939 1924 1984 1906 
C 2342 1767 2515 1444 2515 1140 
C 2515 742 2202 318 1645 318 
C 1453 318 890 318 358 819 
L 269 318 
C 794 -64 1363 -128 1651 -128 
C 2438 -128 3002 488 3002 1186 
C 3002 1440 2925 1763 2656 2061 
C 2394 2347 2163 2410 1638 2549 
C 1338 2626 1146 2677 986 2873 
C 877 3013 819 3146 819 3317 
C 819 3673 1126 4060 1690 4060 
C 1971 4060 2336 4002 2707 3660 
L 2797 4169 
z
" transform="scale(0.015625)"/>
      <path id="CMSS17-73" d="M 2061 2627 
C 1683 2807 1389 2807 1197 2807 
C 742 2807 198 2648 198 2003 
C 198 1359 902 1218 1094 1179 
C 1389 1122 1715 1058 1715 740 
C 1715 337 1254 337 1171 337 
C 915 337 563 407 243 638 
L 166 210 
C 531 0 883 -64 1178 -64 
C 1965 -64 2163 416 2163 781 
C 2163 1094 1984 1305 1862 1401 
C 1651 1568 1574 1587 1050 1696 
C 960 1709 646 1779 646 2066 
C 646 2432 1050 2432 1139 2432 
C 1555 2432 1811 2303 1984 2208 
L 2061 2627 
z
" transform="scale(0.015625)"/>
      <path id="CMSS17-75" d="M 2618 2739 
L 2131 2739 
L 2131 972 
C 2131 498 1786 306 1421 306 
C 998 306 960 447 960 709 
L 960 2739 
L 474 2739 
L 474 678 
C 474 179 646 -64 1088 -64 
C 1306 -64 1798 -13 2144 306 
L 2144 0 
L 2618 0 
L 2618 2739 
z
" transform="scale(0.015625)"/>
     </defs>
     <use xlink:href="#CMSS17-46" transform="scale(0.996264)"/>
     <use xlink:href="#CMSS17-69" transform="translate(53.289559 0) scale(0.996264)"/>
     <use xlink:href="#CMSS17-64" transform="translate(75.470282 0) scale(0.996264)"/>
     <use xlink:href="#CMSS17-61" transform="translate(123.675225 0) scale(0.996264)"/>
     <use xlink:href="#CMSS17-6c" transform="translate(168.597146 0) scale(0.996264)"/>
     <use xlink:href="#CMSS17-69" transform="translate(190.777869 0) scale(0.996264)"/>
     <use xlink:href="#CMSS17-74" transform="translate(212.958592 0) scale(0.996264)"/>
     <use xlink:href="#CMSS17-79" transform="translate(244.187705 0) scale(0.996264)"/>
     <use xlink:href="#CMSS17-41" transform="translate(318.416959 0) scale(0.996264)"/>
     <use xlink:href="#CMSS17-76" transform="translate(380.634814 0) scale(0.996264)"/>
     <use xlink:href="#CMSS17-65" transform="translate(423.634956 0) scale(0.996264)"/>
     <use xlink:href="#CMSS17-72" transform="translate(465.273778 0) scale(0.996264)"/>
     <use xlink:href="#CMSS17-61" transform="translate(497.183551 0) scale(0.996264)"/>
     <use xlink:href="#CMSS17-67" transform="translate(542.105471 0) scale(0.996264)"/>
     <use xlink:href="#CMSS17-65" transform="translate(588.949095 0) scale(0.996264)"/>
     <use xlink:href="#CMSS17-6f" transform="translate(661.81703 0) scale(0.996264)"/>
     <use xlink:href="#CMSS17-66" transform="translate(708.660653 0) scale(0.996264)"/>
     <use xlink:href="#CMSS17-42" transform="translate(768.516425 0) scale(0.996264)"/>
     <use xlink:href="#CMSS17-72" transform="translate(830.854465 0) scale(0.996264)"/>
     <use xlink:href="#CMSS17-61" transform="translate(862.764237 0) scale(0.996264)"/>
     <use xlink:href="#CMSS17-69" transform="translate(907.686158 0) scale(0.996264)"/>
     <use xlink:href="#CMSS17-64" transform="translate(929.866881 0) scale(0.996264)"/>
     <use xlink:href="#CMSS17-69" transform="translate(978.071824 0) scale(0.996264)"/>
     <use xlink:href="#CMSS17-6e" transform="translate(1000.252547 0) scale(0.996264)"/>
     <use xlink:href="#CMSS17-67" transform="translate(1048.45749 0) scale(0.996264)"/>
     <use xlink:href="#CMSS17-4f" transform="translate(1126.530227 0) scale(0.996264)"/>
     <use xlink:href="#CMSS17-70" transform="translate(1195.554482 0) scale(0.996264)"/>
     <use xlink:href="#CMSS17-6f" transform="translate(1274.988538 0) scale(0.996264)"/>
     <use xlink:href="#CMSS17-66" transform="translate(1321.832161 0) scale(0.996264)"/>
     <use xlink:href="#CMSS17-45" transform="translate(1381.687933 0) scale(0.996264)"/>
     <use xlink:href="#CMSS17-61" transform="translate(1437.579946 0) scale(0.996264)"/>
     <use xlink:href="#CMSS17-63" transform="translate(1482.501867 0) scale(0.996264)"/>
     <use xlink:href="#CMSS17-68" transform="translate(1524.140689 0) scale(0.996264)"/>
     <use xlink:href="#CMSS17-53" transform="translate(1603.574745 0) scale(0.996264)"/>
     <use xlink:href="#CMSS17-74" transform="translate(1655.623261 0) scale(0.996264)"/>
     <use xlink:href="#CMSS17-61" transform="translate(1689.454828 0) scale(0.996264)"/>
     <use xlink:href="#CMSS17-74" transform="translate(1734.376748 0) scale(0.996264)"/>
     <use xlink:href="#CMSS17-65" transform="translate(1768.208315 0) scale(0.996264)"/>
     <use xlink:href="#CMSS17-76" transform="translate(1809.847137 0) scale(0.996264)"/>
     <use xlink:href="#CMSS17-65" transform="translate(1852.847279 0) scale(0.996264)"/>
     <use xlink:href="#CMSS17-63" transform="translate(1894.486101 0) scale(0.996264)"/>
     <use xlink:href="#CMSS17-74" transform="translate(1936.124923 0) scale(0.996264)"/>
     <use xlink:href="#CMSS17-6f" transform="translate(1969.956489 0) scale(0.996264)"/>
     <use xlink:href="#CMSS17-72" transform="translate(2014.197659 0) scale(0.996264)"/>
     <use xlink:href="#CMSS17-61" transform="translate(2077.336544 0) scale(0.996264)"/>
     <use xlink:href="#CMSS17-73" transform="translate(2122.258465 0) scale(0.996264)"/>
     <use xlink:href="#CMSS17-46" transform="translate(2189.40112 0) scale(0.996264)"/>
     <use xlink:href="#CMSS17-75" transform="translate(2240.088225 0) scale(0.996264)"/>
     <use xlink:href="#CMSS17-6e" transform="translate(2288.293168 0) scale(0.996264)"/>
     <use xlink:href="#CMSS17-63" transform="translate(2336.498111 0) scale(0.996264)"/>
     <use xlink:href="#CMSS17-74" transform="translate(2378.136933 0) scale(0.996264)"/>
     <use xlink:href="#CMSS17-69" transform="translate(2411.9685 0) scale(0.996264)"/>
     <use xlink:href="#CMSS17-6f" transform="translate(2434.149223 0) scale(0.996264)"/>
     <use xlink:href="#CMSS17-6e" transform="translate(2480.992847 0) scale(0.996264)"/>
     <use xlink:href="#CMSS17-6f" transform="translate(2560.426903 0) scale(0.996264)"/>
     <use xlink:href="#CMSS17-66" transform="translate(2607.270526 0) scale(0.996264)"/>
     <use xlink:href="#CMSS17-47" transform="translate(2667.126298 0) scale(0.996264)"/>
     <use xlink:href="#CMSS17-61" transform="translate(2729.584523 0) scale(0.996264)"/>
     <use xlink:href="#CMSS17-74" transform="translate(2774.506444 0) scale(0.996264)"/>
     <use xlink:href="#CMSS17-65" transform="translate(2808.33801 0) scale(0.996264)"/>
     <use xlink:href="#CMSS17-45" transform="translate(2881.205945 0) scale(0.996264)"/>
     <use xlink:href="#CMSS17-72" transform="translate(2937.097958 0) scale(0.996264)"/>
     <use xlink:href="#CMSS17-72" transform="translate(2969.007731 0) scale(0.996264)"/>
     <use xlink:href="#CMSS17-6f" transform="translate(3000.917504 0) scale(0.996264)"/>
     <use xlink:href="#CMSS17-72" transform="translate(3045.158673 0) scale(0.996264)"/>
     <use xlink:href="#CMSS17-50" transform="translate(3108.297558 0) scale(0.996264)"/>
     <use xlink:href="#CMSS17-72" transform="translate(3168.033145 0) scale(0.996264)"/>
     <use xlink:href="#CMSS17-6f" transform="translate(3199.942917 0) scale(0.996264)"/>
     <use xlink:href="#CMSS17-62" transform="translate(3246.786541 0) scale(0.996264)"/>
     <use xlink:href="#CMSS17-61" transform="translate(3294.991484 0) scale(0.996264)"/>
     <use xlink:href="#CMSS17-62" transform="translate(3339.913405 0) scale(0.996264)"/>
     <use xlink:href="#CMSS17-69" transform="translate(3388.118348 0) scale(0.996264)"/>
     <use xlink:href="#CMSS17-6c" transform="translate(3410.299071 0) scale(0.996264)"/>
     <use xlink:href="#CMSS17-69" transform="translate(3432.479794 0) scale(0.996264)"/>
     <use xlink:href="#CMSS17-74" transform="translate(3454.660517 0) scale(0.996264)"/>
     <use xlink:href="#CMSS17-79" transform="translate(3485.88963 0) scale(0.996264)"/>
    </g>
   </g>
  </g>
 </g>
 <defs>
  <clipPath id="p6bb502ad23">
   <rect x="40.67132" y="21.50218" width="558" height="221.76"/>
  </clipPath>
 </defs>
</svg>
