<?xml version="1.0" encoding="UTF-8" standalone="no"?>
<!-- Created with Inkscape (http://www.inkscape.org/) 
Converted from [[Image:FatManExternal.jpg]] by User:SonicChao -->
<svg
   xmlns:dc="http://purl.org/dc/elements/1.1/"
   xmlns:cc="http://web.resource.org/cc/"
   xmlns:rdf="http://www.w3.org/1999/02/22-rdf-syntax-ns#"
   xmlns:svg="http://www.w3.org/2000/svg"
   xmlns="http://www.w3.org/2000/svg"
   xmlns:xlink="http://www.w3.org/1999/xlink"
   xmlns:sodipodi="http://sodipodi.sourceforge.net/DTD/sodipodi-0.dtd"
   xmlns:inkscape="http://www.inkscape.org/namespaces/inkscape"
   id="svg9797"
   sodipodi:version="0.32"
   inkscape:version="0.45.1"
   width="414.09"
   height="252"
   sodipodi:docbase="/home/syntaxerror"
   sodipodi:docname="FatManExternal.svg"
   inkscape:output_extension="org.inkscape.output.svg.inkscape"
   version="1.0">
  <metadata
     id="metadata9802">
    <rdf:RDF>
      <cc:Work
         rdf:about="">
        <dc:format>image/svg+xml</dc:format>
        <dc:type
           rdf:resource="http://purl.org/dc/dcmitype/StillImage" />
      </cc:Work>
    </rdf:RDF>
  </metadata>
  <defs
     id="defs9800">
    <linearGradient
       id="linearGradient5345">
      <stop
         style="stop-color:#aa0000;stop-opacity:1;"
         offset="0"
         id="stop5347" />
      <stop
         style="stop-color:#ffffff;stop-opacity:1;"
         offset="1"
         id="stop5349" />
    </linearGradient>
    <linearGradient
       id="linearGradient3961">
      <stop
         style="stop-color:#e9e292;stop-opacity:1;"
         offset="0"
         id="stop3963" />
      <stop
         style="stop-color:#a99c00;stop-opacity:1;"
         offset="1"
         id="stop3965" />
    </linearGradient>
    <linearGradient
       id="linearGradient3941">
      <stop
         style="stop-color:#0e5f76;stop-opacity:1;"
         offset="0"
         id="stop3943" />
      <stop
         style="stop-color:#008cb4;stop-opacity:0;"
         offset="1"
         id="stop3945" />
    </linearGradient>
    <linearGradient
       id="linearGradient10698">
      <stop
         style="stop-color:#512020;stop-opacity:0.93860847;"
         offset="0"
         id="stop10700" />
      <stop
         id="stop11589"
         offset="0"
         style="stop-color:#ffffff;stop-opacity:1;" />
      <stop
         id="stop10706"
         offset="1"
         style="stop-color:#abb2b4;stop-opacity:1" />
    </linearGradient>
    <linearGradient
       id="linearGradient10682">
      <stop
         style="stop-color:#c9d2d7;stop-opacity:0.05882353;"
         offset="0"
         id="stop10696" />
      <stop
         style="stop-color:#c9d2d7;stop-opacity:0;"
         offset="1"
         id="stop10686" />
    </linearGradient>
    <radialGradient
       inkscape:collect="always"
       xlink:href="#linearGradient10698"
       id="radialGradient2374"
       gradientUnits="userSpaceOnUse"
       gradientTransform="matrix(0.206167,-0.190616,0.208006,0.224974,128.8837,168.2954)"
       cx="246.67195"
       cy="98.559692"
       fx="246.67195"
       fy="98.559692"
       r="75.609627" />
    <linearGradient
       inkscape:collect="always"
       xlink:href="#linearGradient3961"
       id="linearGradient2381"
       gradientUnits="userSpaceOnUse"
       x1="16.909515"
       y1="172.68422"
       x2="307.66119"
       y2="172.68422" />
    <linearGradient
       inkscape:collect="always"
       xlink:href="#linearGradient3961"
       id="linearGradient4345"
       x1="330.77823"
       y1="147.56477"
       x2="404.89819"
       y2="147.56477"
       gradientUnits="userSpaceOnUse" />
    <linearGradient
       inkscape:collect="always"
       xlink:href="#linearGradient3961"
       id="linearGradient4349"
       gradientUnits="userSpaceOnUse"
       x1="330.77823"
       y1="147.56477"
       x2="404.89819"
       y2="147.56477"
       gradientTransform="translate(-0.2487194,-5.1699317e-8)" />
    <linearGradient
       inkscape:collect="always"
       xlink:href="#linearGradient5345"
       id="linearGradient5367"
       gradientUnits="userSpaceOnUse"
       spreadMethod="pad"
       x1="82.816978"
       y1="149.05704"
       x2="116.64635"
       y2="149.05704"
       gradientTransform="matrix(1.0315978,0,0,0.9997667,-2.389176,0.1941645)" />
  </defs>
  <sodipodi:namedview
     inkscape:window-height="698"
     inkscape:window-width="1280"
     inkscape:pageshadow="2"
     inkscape:pageopacity="0.0"
     borderopacity="1.0"
     bordercolor="#666666"
     pagecolor="#ffffff"
     id="base"
     inkscape:zoom="1.9603175"
     inkscape:cx="207.045"
     inkscape:cy="126"
     inkscape:window-x="0"
     inkscape:window-y="0"
     inkscape:current-layer="layer11"
     height="252px"
     width="414.09px"
     showguides="true"
     inkscape:guide-bbox="true" />
  <g
     inkscape:groupmode="layer"
     id="layer10"
     inkscape:label="Thingswithlinescomingoutofthem">
    <path
       style="fill:#838442;fill-opacity:1;fill-rule:evenodd;stroke:#000000;stroke-width:1px;stroke-linecap:butt;stroke-linejoin:miter;stroke-opacity:1"
       d="M 62.042419,97.600051 L 65.243393,91.292248 L 84.825826,80.088837 L 90.380458,81.0303 L 62.042419,97.600051 z "
       id="path6370" />
    <path
       style="fill:none;fill-opacity:0.75;fill-rule:evenodd;stroke:#000000;stroke-width:1px;stroke-linecap:butt;stroke-linejoin:miter;stroke-opacity:1"
       d="M 69.574123,88.656151 L 62.701443,83.760543"
       id="path6372" />
    <path
       style="fill:none;fill-opacity:0.75;fill-rule:evenodd;stroke:#000000;stroke-width:1px;stroke-linecap:butt;stroke-linejoin:miter;stroke-opacity:1"
       d="M 74.375585,86.114201 L 67.220466,81.124447 L 70.42144,78.676643 L 78.282657,83.995909"
       id="path6374"
       sodipodi:nodetypes="cccc" />
    <path
       style="fill:none;fill-opacity:0.75;fill-rule:evenodd;stroke:#000000;stroke-width:1px;stroke-linecap:butt;stroke-linejoin:miter;stroke-opacity:1"
       d="M 82.472168,81.642251 L 75.599488,76.746643"
       id="path6379" />
    <path
       style="fill:#838442;fill-opacity:1;fill-rule:evenodd;stroke:#000000;stroke-width:1px;stroke-linecap:butt;stroke-linejoin:miter;stroke-opacity:1"
       d="M 93.006693,218.05768 L 85.94311,218.43251 L 66.460641,207.05616 L 64.503859,201.77304 L 93.006693,218.05768 z "
       id="path6385" />
    <path
       style="fill:none;fill-opacity:0.75;fill-rule:evenodd;stroke:#000000;stroke-width:1px;stroke-linecap:butt;stroke-linejoin:miter;stroke-opacity:1"
       d="M 82.338268,216.46344 L 74.948917,220.53754"
       id="path6387" />
    <path
       style="fill:none;fill-opacity:0.75;fill-rule:evenodd;stroke:#000000;stroke-width:1px;stroke-linecap:butt;stroke-linejoin:miter;stroke-opacity:1"
       d="M 78.642806,214.37443 L 71.523302,218.42525 L 67.142617,215.55509 L 74.560354,211.45542"
       id="path6389"
       sodipodi:nodetypes="cccc" />
    <path
       style="fill:none;fill-opacity:0.75;fill-rule:evenodd;stroke:#000000;stroke-width:1px;stroke-linecap:butt;stroke-linejoin:miter;stroke-opacity:1"
       d="M 68.877553,208.71549 L 62.060202,213.68785"
       id="path6391" />
  </g>
  <g
     inkscape:groupmode="layer"
     id="layer2"
     inkscape:label="FatManBody"
     style="opacity:1;display:inline">
    <path
       style="opacity:1;fill:url(#linearGradient2381);fill-opacity:1;stroke:#000000;stroke-width:1;stroke-linecap:round;stroke-linejoin:round;stroke-miterlimit:4;stroke-opacity:1"
       d="M 351.67221,172.68422 C 331.76632,208.92469 294.08407,246.15579 182.96934,255.52521 C 91.080736,263.27343 17.409515,219.77348 17.409515,172.68422 C 17.409515,125.59496 92.994896,84.320885 185.0647,89.843229 C 200.45516,90.766349 213.59837,92.873704 225.06188,95.566563 C 253.78647,102.31417 271.44083,110.27236 288.00195,114.95264 C 323.42779,124.96421 337.15022,149.85402 351.67221,172.68422 z "
       id="path3066"
       sodipodi:nodetypes="csssssc"
       transform="matrix(0.949556,0,0,1.008695,16.272787,-26.123517)" />
    <path
       style="fill:none;fill-opacity:0.75;fill-rule:evenodd;stroke:#000000;stroke-width:1.5;stroke-linecap:butt;stroke-linejoin:miter;stroke-miterlimit:4;stroke-dasharray:none;stroke-opacity:1"
       d="M 67.785343,93.834199 L 67.785343,203.4205"
       id="path5389" />
  </g>
  <g
     inkscape:groupmode="layer"
     id="layer8"
     inkscape:label="FatManBodyHolder"
     style="opacity:1;display:inline">
    <path
       style="opacity:1;fill:#838442;fill-opacity:1;stroke:#000000;stroke-width:1.42657721;stroke-linecap:round;stroke-linejoin:round;stroke-miterlimit:4;stroke-dasharray:none;stroke-opacity:1"
       d="M 134.28125,72.46875 C 114.3513,77.808965 99.000569,80.641994 86.125,97.125 C 61.888635,128.15183 63.609915,176.50277 89.96875,205.03125 C 112.98428,229.94123 141.93443,227.476 172.40942,227.476 C 207.5456,227.476 234.16876,228.14726 256.375,200 C 280.61071,169.27743 278.89071,121.40376 252.53125,93.15625 C 229.75677,68.750507 205.10191,70.148999 169.74207,70.148999 C 154.72412,70.148999 148.11476,69.920949 134.28125,72.46875 z "
       id="path5384"
       sodipodi:nodetypes="cssccscc" />
  </g>
  <g
     inkscape:groupmode="layer"
     id="layer9"
     inkscape:label="rectangles"
     style="opacity:1;display:inline">
    <rect
       style="opacity:1;fill:#838442;fill-opacity:1;stroke:#000000;stroke-width:1.5;stroke-linecap:round;stroke-linejoin:round;stroke-miterlimit:4;stroke-dasharray:none;stroke-opacity:1"
       id="rect6361"
       width="15.81658"
       height="6.7785344"
       x="46.319984"
       y="99.859566"
       rx="57.994129"
       ry="0" />
    <rect
       style="opacity:1;fill:#838442;fill-opacity:1;stroke:#000000;stroke-width:1.5;stroke-linecap:round;stroke-linejoin:round;stroke-miterlimit:4;stroke-dasharray:none;stroke-opacity:1"
       id="rect6363"
       width="15.81658"
       height="6.7785344"
       x="45.190231"
       y="188.35709"
       rx="57.994129"
       ry="0" />
    <rect
       style="opacity:1;fill:#838442;fill-opacity:1;stroke:#000000;stroke-width:1.50841224;stroke-linecap:round;stroke-linejoin:round;stroke-miterlimit:4;stroke-dasharray:none;stroke-opacity:1"
       id="rect6365"
       width="28.988651"
       height="5.2637811"
       x="160.05293"
       y="232.42178"
       rx="0"
       ry="0" />
    <rect
       style="opacity:1;fill:#838442;fill-opacity:1;stroke:#000000;stroke-width:1.50841224;stroke-linecap:round;stroke-linejoin:round;stroke-miterlimit:4;stroke-dasharray:none;stroke-opacity:1"
       id="rect6367"
       width="28.988651"
       height="5.2637811"
       x="159.11147"
       y="58.815971"
       rx="0"
       ry="0" />
  </g>
  <g
     inkscape:groupmode="layer"
     id="layer3"
     inkscape:label="tail"
     style="opacity:1;display:inline">
    <rect
       style="opacity:1;fill:url(#linearGradient4349);fill-opacity:1;stroke:#000000;stroke-width:1;stroke-linecap:round;stroke-linejoin:round;stroke-miterlimit:4;stroke-dasharray:none;stroke-opacity:1"
       id="rect3368"
       width="73.119965"
       height="170.11584"
       x="331.02948"
       y="62.506855"
       ry="0" />
  </g>
  <g
     inkscape:groupmode="layer"
     id="layer4"
     inkscape:label="triangles"
     style="opacity:1;display:inline">
    <path
       style="fill:#a19e6f;fill-opacity:1;fill-rule:evenodd;stroke:#000000;stroke-width:1px;stroke-linecap:butt;stroke-linejoin:miter;stroke-opacity:1"
       d="M 330.7808,63.004271 L 293.97211,112.24833 L 330.28338,126.17594 L 330.7808,63.004271 z "
       id="path4352" />
    <path
       style="fill:#a19e6e;fill-opacity:1;fill-rule:evenodd;stroke:#000000;stroke-width:1px;stroke-linecap:butt;stroke-linejoin:miter;stroke-opacity:1"
       d="M 330.45175,233.33097 L 330.2896,171.85065 L 292.89488,182.53344 L 330.45175,233.33097 z "
       id="path4354" />
    <rect
       style="opacity:1;fill:#a19e6f;fill-opacity:1;stroke:#000000;stroke-width:1.24199998;stroke-linecap:round;stroke-linejoin:round;stroke-miterlimit:4;stroke-dasharray:none;stroke-opacity:1"
       id="rect5370"
       width="36.528736"
       height="5.6487741"
       x="294.11307"
       y="144.6732"
       ry="0" />
  </g>
  <g
     inkscape:groupmode="layer"
     id="layer1"
     inkscape:label="Circlething"
     style="opacity:1;display:inline">
    <path
       sodipodi:type="arc"
       style="opacity:1;fill:url(#radialGradient2374);fill-opacity:1;stroke:#000000;stroke-width:1;stroke-linecap:round;stroke-linejoin:round;stroke-miterlimit:4;stroke-dasharray:none;stroke-opacity:1"
       id="path9806"
       sodipodi:cx="180.56155"
       sodipodi:cy="159.50275"
       sodipodi:rx="75.109627"
       sodipodi:ry="75.109627"
       d="M 255.67118 159.50275 A 75.109627 75.109627 0 1 1  105.45193,159.50275 A 75.109627 75.109627 0 1 1  255.67118 159.50275 z"
       transform="matrix(0.960528,0,0,0.960528,0.6607294,-4.6472476)" />
  </g>
  <g
     inkscape:groupmode="layer"
     id="layer6"
     inkscape:label="green"
     style="opacity:1;display:inline">
    <rect
       style="opacity:1;fill:#4a9f48;fill-opacity:1;stroke:#000000;stroke-width:1;stroke-linecap:round;stroke-linejoin:round;stroke-miterlimit:4;stroke-dasharray:none;stroke-opacity:1"
       id="rect4368"
       width="10.445709"
       height="83.06826"
       x="247.2475"
       y="106.74332" />
    <path
       style="fill:#4a9f48;fill-opacity:1;stroke:#000000;stroke-width:0.70115852;stroke-linecap:round;stroke-linejoin:round;stroke-miterlimit:4;stroke-opacity:1"
       d="M 258.13256,106.9171 L 265.43444,114.37792 L 265.63515,182.64938 L 258.13256,190.28421 L 258.13256,106.9171 z "
       id="rect4370"
       sodipodi:nodetypes="ccccc" />
  </g>
  <g
     inkscape:groupmode="layer"
     id="layer7"
     inkscape:label="red"
     style="opacity:1;display:inline">
    <rect
       style="opacity:1;fill:#aa0000;fill-opacity:1;stroke:#000000;stroke-width:1.43975675;stroke-linecap:round;stroke-linejoin:round;stroke-miterlimit:4;stroke-dasharray:none;stroke-opacity:1"
       id="rect5359"
       width="9.2409229"
       height="82.609299"
       x="77.629936"
       y="107.854"
       ry="0" />
    <rect
       style="opacity:1;fill:url(#linearGradient5367);fill-opacity:1;stroke:#000000;stroke-width:1.2613225;stroke-linecap:round;stroke-linejoin:round;stroke-miterlimit:4;stroke-dasharray:none;stroke-opacity:1"
       id="rect4374"
       width="16.683237"
       height="82.80648"
       x="83.685509"
       y="107.81317" />
  </g>
  <g
     inkscape:groupmode="layer"
     id="layer11"
     inkscape:label="Numbers">
    <path
       style="fill:none;fill-opacity:0.75;fill-rule:evenodd;stroke:#000000;stroke-width:1px;stroke-linecap:butt;stroke-linejoin:miter;stroke-opacity:1"
       d="M 45.943399,100.89517 L 20.335603,81.124447"
       id="path6395" />
    <path
       sodipodi:type="arc"
       style="opacity:1;fill:#ededed;fill-opacity:1;stroke:#000000;stroke-width:0.89999998;stroke-linecap:round;stroke-linejoin:round;stroke-miterlimit:4;stroke-dasharray:none;stroke-opacity:1"
       id="path6397"
       sodipodi:cx="13.651215"
       sodipodi:cy="76.228836"
       sodipodi:rx="7.9082899"
       sodipodi:ry="7.9082899"
       d="M 19.472685,81.581549 A 7.9082899,7.9082899 0 1 1 19.472935,81.581276"
       sodipodi:start="0.74347273"
       sodipodi:end="7.0266112"
       sodipodi:open="true"
       transform="translate(9.4146031e-2,0.2824389)" />
    <path
       transform="translate(459,101.25)"
       style=""
       d="M -447.51172,-21.035104 L -445.57812,-21.035104 L -445.57812,-27.708932 L -447.68164,-27.287057 L -447.68164,-28.365182 L -445.58984,-28.787057 L -444.40625,-28.787057 L -444.40625,-21.035104 L -442.47266,-21.035104 L -442.47266,-20.03901 L -447.51172,-20.03901 L -447.51172,-21.035104"
       id="flowRoot7368" />
    <path
       style="fill:none;fill-opacity:0.75;fill-rule:evenodd;stroke:#000000;stroke-width:1px;stroke-linecap:butt;stroke-linejoin:miter;stroke-opacity:1"
       d="M 69.725993,78.567926 L 52.603479,21.850876"
       id="path7376"
       sodipodi:nodetypes="cc" />
    <path
       sodipodi:type="arc"
       style="opacity:1;fill:#ededed;fill-opacity:1;stroke:#000000;stroke-width:0.89999998;stroke-linecap:round;stroke-linejoin:round;stroke-miterlimit:4;stroke-dasharray:none;stroke-opacity:1"
       id="path7378"
       sodipodi:cx="13.651215"
       sodipodi:cy="76.228836"
       sodipodi:rx="7.9082899"
       sodipodi:ry="7.9082899"
       d="M 19.472685,81.581549 A 7.9082899,7.9082899 0 1 1 19.472935,81.581276"
       sodipodi:start="0.74347273"
       sodipodi:end="7.0266112"
       sodipodi:open="true"
       transform="translate(37.26047,-62.347045)" />
    <path
       transform="translate(496.16633,38.620513)"
       style=""
       d="M -446.69727,-21.035104 L -442.56641,-21.035104 L -442.56641,-20.03901 L -448.12109,-20.03901 L -448.12109,-21.035104 C -447.67188,-21.499946 -447.06055,-22.122992 -446.28711,-22.904244 C -445.50977,-23.689397 -445.02149,-24.195256 -444.82227,-24.421823 C -444.44336,-24.847599 -444.17969,-25.206974 -444.03125,-25.499948 C -443.87891,-25.796817 -443.80274,-26.087832 -443.80273,-26.372994 C -443.80274,-26.837831 -443.9668,-27.216737 -444.29492,-27.509713 C -444.61915,-27.802674 -445.04297,-27.949158 -445.56641,-27.949166 C -445.9375,-27.949158 -446.33008,-27.884705 -446.74414,-27.755807 C -447.1543,-27.626893 -447.59375,-27.431581 -448.0625,-27.169869 L -448.0625,-28.365182 C -447.58594,-28.55658 -447.14063,-28.701111 -446.72656,-28.798776 C -446.3125,-28.896423 -445.9336,-28.945251 -445.58984,-28.94526 C -444.6836,-28.945251 -443.96094,-28.718689 -443.42188,-28.265573 C -442.88282,-27.81244 -442.61329,-27.206972 -442.61328,-26.449166 C -442.61329,-26.089785 -442.68165,-25.747989 -442.81836,-25.423776 C -442.95118,-25.103458 -443.19532,-24.724552 -443.55078,-24.287057 C -443.64844,-24.173772 -443.95899,-23.845647 -444.48242,-23.302682 C -445.00586,-22.763617 -445.74414,-22.007758 -446.69727,-21.035104"
       id="flowRoot7380" />
    <path
       style="fill:none;fill-opacity:0.75;fill-rule:evenodd;stroke:#000000;stroke-width:1px;stroke-linecap:butt;stroke-linejoin:miter;stroke-opacity:1"
       d="M 79.80226,111.36 L 100.68674,22.292819"
       id="path7388"
       sodipodi:nodetypes="cc" />
    <path
       sodipodi:type="arc"
       style="opacity:1;fill:#ededed;fill-opacity:1;stroke:#000000;stroke-width:0.89999998;stroke-linecap:round;stroke-linejoin:round;stroke-miterlimit:4;stroke-dasharray:none;stroke-opacity:1"
       id="path7390"
       sodipodi:cx="13.651215"
       sodipodi:cy="76.228836"
       sodipodi:rx="7.9082899"
       sodipodi:ry="7.9082899"
       d="M 19.472685,81.581549 A 7.9082899,7.9082899 0 1 1 19.472935,81.581276"
       sodipodi:start="0.74347273"
       sodipodi:end="7.0266112"
       sodipodi:open="true"
       transform="translate(88.525712,-61.816715)" />
    <path
       transform="translate(547.43157,39.150843)"
       style=""
       d="M -444.13086,-24.755807 C -443.56446,-24.634709 -443.12305,-24.382756 -442.80664,-23.999948 C -442.48633,-23.617131 -442.32618,-23.144476 -442.32617,-22.581979 C -442.32618,-21.718696 -442.62305,-21.050728 -443.2168,-20.578073 C -443.81055,-20.105416 -444.6543,-19.869088 -445.74805,-19.869088 C -446.11524,-19.869088 -446.49414,-19.906198 -446.88477,-19.980416 C -447.27149,-20.050729 -447.67188,-20.158151 -448.08594,-20.302682 L -448.08594,-21.44526 C -447.75781,-21.253853 -447.39844,-21.109321 -447.00781,-21.011666 C -446.61719,-20.914009 -446.20899,-20.865181 -445.7832,-20.865182 C -445.04102,-20.865181 -444.47657,-21.011665 -444.08984,-21.304635 C -443.69922,-21.597602 -443.50391,-22.023383 -443.50391,-22.581979 C -443.50391,-23.097601 -443.68555,-23.499944 -444.04883,-23.78901 C -444.40821,-24.081975 -444.91016,-24.228459 -445.55469,-24.228463 L -446.57422,-24.228463 L -446.57422,-25.201119 L -445.50781,-25.201119 C -444.92579,-25.201114 -444.48047,-25.316349 -444.17188,-25.546823 C -443.86329,-25.781192 -443.70899,-26.117129 -443.70898,-26.554635 C -443.70899,-27.003847 -443.86915,-27.347597 -444.18945,-27.585885 C -444.50586,-27.828065 -444.96094,-27.949158 -445.55469,-27.949166 C -445.87891,-27.949158 -446.22657,-27.914002 -446.59766,-27.843698 C -446.96875,-27.773377 -447.37695,-27.664002 -447.82227,-27.515573 L -447.82227,-28.57026 C -447.37305,-28.695251 -446.95313,-28.789001 -446.5625,-28.85151 C -446.16797,-28.914001 -445.79688,-28.945251 -445.44922,-28.94526 C -444.55079,-28.945251 -443.83985,-28.740173 -443.31641,-28.330026 C -442.79297,-27.923768 -442.53126,-27.372987 -442.53125,-26.677682 C -442.53126,-26.193301 -442.66993,-25.783145 -442.94727,-25.447213 C -443.22462,-25.115177 -443.61915,-24.884708 -444.13086,-24.755807"
       id="flowRoot7392" />
    <path
       style="fill:none;fill-opacity:0.75;fill-rule:evenodd;stroke:#000000;stroke-width:1px;stroke-linecap:butt;stroke-linejoin:miter;stroke-opacity:1"
       d="M 91.911467,113.74649 L 144.61576,21.320549"
       id="path7400"
       sodipodi:nodetypes="cc" />
    <path
       sodipodi:type="arc"
       style="opacity:1;fill:#ededed;fill-opacity:1;stroke:#000000;stroke-width:0.89999998;stroke-linecap:round;stroke-linejoin:round;stroke-miterlimit:4;stroke-dasharray:none;stroke-opacity:1"
       id="path7402"
       sodipodi:cx="13.651215"
       sodipodi:cy="76.228836"
       sodipodi:rx="7.9082899"
       sodipodi:ry="7.9082899"
       d="M 19.472685,81.581549 A 7.9082899,7.9082899 0 1 1 19.472935,81.581276"
       sodipodi:start="0.74347273"
       sodipodi:end="7.0266112"
       sodipodi:open="true"
       transform="translate(134.66443,-62.170268)" />
    <path
       transform="translate(593.57029,38.79729)"
       style=""
       d="M -444.46484,-27.755807 L -447.45312,-23.085885 L -444.46484,-23.085885 L -444.46484,-27.755807 M -444.77539,-28.787057 L -443.28711,-28.787057 L -443.28711,-23.085885 L -442.03906,-23.085885 L -442.03906,-22.10151 L -443.28711,-22.10151 L -443.28711,-20.03901 L -444.46484,-20.03901 L -444.46484,-22.10151 L -448.41406,-22.10151 L -448.41406,-23.244088 L -444.77539,-28.787057"
       id="flowRoot7404" />
    <path
       style="fill:none;fill-opacity:0.75;fill-rule:evenodd;stroke:#000000;stroke-width:1px;stroke-linecap:butt;stroke-linejoin:miter;stroke-opacity:1"
       d="M 175.88039,62.03931 L 201.8914,20.525053"
       id="path7412"
       sodipodi:nodetypes="cc" />
    <path
       sodipodi:type="arc"
       style="opacity:1;fill:#ededed;fill-opacity:1;stroke:#000000;stroke-width:0.89999998;stroke-linecap:round;stroke-linejoin:round;stroke-miterlimit:4;stroke-dasharray:none;stroke-opacity:1"
       id="path7414"
       sodipodi:cx="13.651215"
       sodipodi:cy="76.228836"
       sodipodi:rx="7.9082899"
       sodipodi:ry="7.9082899"
       d="M 19.472685,81.581549 A 7.9082899,7.9082899 0 1 1 19.472935,81.581276"
       sodipodi:start="0.74347273"
       sodipodi:end="7.0266112"
       sodipodi:open="true"
       transform="translate(191.58653,-62.523822)" />
    <path
       transform="translate(650.49239,38.443736)"
       style=""
       d="M -447.70508,-28.787057 L -443.05859,-28.787057 L -443.05859,-27.790963 L -446.62109,-27.790963 L -446.62109,-25.646432 C -446.44922,-25.70502 -446.27735,-25.747989 -446.10547,-25.775338 C -445.9336,-25.806582 -445.76172,-25.822207 -445.58984,-25.822213 C -444.61329,-25.822207 -443.83985,-25.55463 -443.26953,-25.019479 C -442.69923,-24.484318 -442.41407,-23.759709 -442.41406,-22.845651 C -442.41407,-21.904243 -442.70704,-21.171821 -443.29297,-20.648385 C -443.87891,-20.128854 -444.70508,-19.869088 -445.77148,-19.869088 C -446.13867,-19.869088 -446.51367,-19.900338 -446.89648,-19.962838 C -447.27539,-20.025338 -447.66797,-20.119088 -448.07422,-20.244088 L -448.07422,-21.433541 C -447.72266,-21.242134 -447.35938,-21.099556 -446.98438,-21.005807 C -446.60938,-20.912056 -446.21289,-20.865181 -445.79492,-20.865182 C -445.11914,-20.865181 -444.58399,-21.042915 -444.18945,-21.398385 C -443.79493,-21.753852 -443.59766,-22.236273 -443.59766,-22.845651 C -443.59766,-23.455022 -443.79493,-23.937444 -444.18945,-24.292916 C -444.58399,-24.64838 -445.11914,-24.826115 -445.79492,-24.826119 C -446.11133,-24.826115 -446.42774,-24.790958 -446.74414,-24.720651 C -447.05664,-24.650334 -447.37695,-24.540959 -447.70508,-24.392526 L -447.70508,-28.787057"
       id="flowRoot7416" />
    <path
       sodipodi:type="arc"
       style="opacity:1;fill:#ededed;fill-opacity:1;stroke:#000000;stroke-width:0.89999998;stroke-linecap:round;stroke-linejoin:round;stroke-miterlimit:4;stroke-dasharray:none;stroke-opacity:1"
       id="path7424"
       sodipodi:cx="13.651215"
       sodipodi:cy="76.228836"
       sodipodi:rx="7.9082899"
       sodipodi:ry="7.9082899"
       d="M 19.472685,81.581549 A 7.9082899,7.9082899 0 1 1 19.472935,81.581276"
       sodipodi:start="0.74347273"
       sodipodi:end="7.0266112"
       sodipodi:open="true"
       transform="translate(250.62994,-62.700598)" />
    <path
       transform="translate(709.5358,38.26696)"
       style=""
       d="M -445.03906,-24.884713 C -445.57032,-24.884708 -445.99219,-24.703068 -446.30469,-24.339791 C -446.61328,-23.976506 -446.76758,-23.47846 -446.76758,-22.845651 C -446.76758,-22.216742 -446.61328,-21.718696 -446.30469,-21.35151 C -445.99219,-20.988228 -445.57032,-20.806587 -445.03906,-20.806588 C -444.50782,-20.806587 -444.0879,-20.988228 -443.7793,-21.35151 C -443.4668,-21.718696 -443.31055,-22.216742 -443.31055,-22.845651 C -443.31055,-23.47846 -443.4668,-23.976506 -443.7793,-24.339791 C -444.0879,-24.703068 -444.50782,-24.884708 -445.03906,-24.884713 M -442.68945,-28.593698 L -442.68945,-27.515573 C -442.98633,-27.65619 -443.28712,-27.763612 -443.5918,-27.837838 C -443.89258,-27.912049 -444.19141,-27.949158 -444.48828,-27.949166 C -445.26953,-27.949158 -445.86719,-27.685487 -446.28125,-27.158151 C -446.69141,-26.6308 -446.92578,-25.833926 -446.98438,-24.767526 C -446.75391,-25.107364 -446.46485,-25.36713 -446.11719,-25.546823 C -445.76953,-25.730411 -445.38672,-25.822207 -444.96875,-25.822213 C -444.08985,-25.822207 -443.39649,-25.55463 -442.88867,-25.019479 C -442.37696,-24.488224 -442.1211,-23.763616 -442.12109,-22.845651 C -442.1211,-21.947211 -442.38673,-21.226509 -442.91797,-20.683541 C -443.44922,-20.140572 -444.15625,-19.869088 -445.03906,-19.869088 C -446.05078,-19.869088 -446.82422,-20.255807 -447.35938,-21.029244 C -447.89453,-21.806586 -448.16211,-22.931585 -448.16211,-24.404244 C -448.16211,-25.787051 -447.83399,-26.888613 -447.17773,-27.708932 C -446.52149,-28.533142 -445.64063,-28.945251 -444.53516,-28.94526 C -444.23829,-28.945251 -443.93946,-28.915954 -443.63867,-28.857369 C -443.33399,-28.798767 -443.01758,-28.710876 -442.68945,-28.593698"
       id="flowRoot7426" />
    <path
       style="fill:none;fill-opacity:0.75;fill-rule:evenodd;stroke:#000000;stroke-width:1px;stroke-linecap:butt;stroke-linejoin:miter;stroke-opacity:1"
       d="M 204.35386,95.022294 L 259.86174,20.068975"
       id="path7434" />
    <path
       sodipodi:type="arc"
       style="opacity:1;fill:#ededed;fill-opacity:1;stroke:#000000;stroke-width:0.89999998;stroke-linecap:round;stroke-linejoin:round;stroke-miterlimit:4;stroke-dasharray:none;stroke-opacity:1"
       id="path7456"
       sodipodi:cx="13.651215"
       sodipodi:cy="76.228836"
       sodipodi:rx="7.9082899"
       sodipodi:ry="7.9082899"
       d="M 19.472685,81.581549 A 7.9082899,7.9082899 0 1 1 19.472935,81.581276"
       sodipodi:start="0.74347273"
       sodipodi:end="7.0266112"
       sodipodi:open="true"
       transform="translate(285.98528,-62.170268)" />
    <path
       transform="translate(744.89114,38.79729)"
       style=""
       d="M -448.01562,-28.787057 L -442.39062,-28.787057 L -442.39062,-28.283151 L -445.56641,-20.03901 L -446.80273,-20.03901 L -443.81445,-27.790963 L -448.01562,-27.790963 L -448.01562,-28.787057"
       id="flowRoot7458" />
    <path
       sodipodi:type="arc"
       style="opacity:1;fill:#ededed;fill-opacity:1;stroke:#000000;stroke-width:0.89999998;stroke-linecap:round;stroke-linejoin:round;stroke-miterlimit:4;stroke-dasharray:none;stroke-opacity:1"
       id="path7466"
       sodipodi:cx="13.651215"
       sodipodi:cy="76.228836"
       sodipodi:rx="7.9082899"
       sodipodi:ry="7.9082899"
       d="M 19.472685,81.581549 A 7.9082899,7.9082899 0 1 1 19.472935,81.581276"
       sodipodi:start="0.74347273"
       sodipodi:end="7.0266112"
       sodipodi:open="true"
       transform="translate(318.68897,-61.639938)" />
    <path
       transform="translate(777.59483,39.32762)"
       style=""
       d="M -445.18555,-24.193307 C -445.74805,-24.193303 -446.19141,-24.042912 -446.51562,-23.742135 C -446.83594,-23.44135 -446.9961,-23.027288 -446.99609,-22.499948 C -446.9961,-21.972602 -446.83594,-21.55854 -446.51562,-21.25776 C -446.19141,-20.956978 -445.74805,-20.806587 -445.18555,-20.806588 C -444.62305,-20.806587 -444.17969,-20.956978 -443.85547,-21.25776 C -443.53126,-21.562446 -443.36915,-21.976508 -443.36914,-22.499948 C -443.36915,-23.027288 -443.53126,-23.44135 -443.85547,-23.742135 C -444.17579,-24.042912 -444.61915,-24.193303 -445.18555,-24.193307 M -446.36914,-24.697213 C -446.87696,-24.822208 -447.27344,-25.058536 -447.55859,-25.406198 C -447.83984,-25.753848 -447.98047,-26.177676 -447.98047,-26.677682 C -447.98047,-27.376893 -447.73242,-27.929627 -447.23633,-28.335885 C -446.73633,-28.742126 -446.05274,-28.945251 -445.18555,-28.94526 C -444.31446,-28.945251 -443.63086,-28.742126 -443.13477,-28.335885 C -442.63868,-27.929627 -442.39063,-27.376893 -442.39062,-26.677682 C -442.39063,-26.177676 -442.53321,-25.753848 -442.81836,-25.406198 C -443.09962,-25.058536 -443.49219,-24.822208 -443.99609,-24.697213 C -443.42579,-24.564396 -442.98243,-24.304631 -442.66602,-23.917916 C -442.34571,-23.531194 -442.18555,-23.058538 -442.18555,-22.499948 C -442.18555,-21.65229 -442.44532,-21.0019 -442.96484,-20.548776 C -443.48047,-20.095651 -444.22071,-19.869088 -445.18555,-19.869088 C -446.15039,-19.869088 -446.89258,-20.095651 -447.41211,-20.548776 C -447.92774,-21.0019 -448.18555,-21.65229 -448.18555,-22.499948 C -448.18555,-23.058538 -448.02539,-23.531194 -447.70508,-23.917916 C -447.38477,-24.304631 -446.93946,-24.564396 -446.36914,-24.697213 M -446.80273,-26.566354 C -446.80274,-26.113223 -446.66211,-25.759707 -446.38086,-25.505807 C -446.09571,-25.251895 -445.69727,-25.124942 -445.18555,-25.124948 C -444.67774,-25.124942 -444.28125,-25.251895 -443.99609,-25.505807 C -443.70704,-25.759707 -443.56251,-26.113223 -443.5625,-26.566354 C -443.56251,-27.019472 -443.70704,-27.372987 -443.99609,-27.626901 C -444.28125,-27.880799 -444.67774,-28.007752 -445.18555,-28.00776 C -445.69727,-28.007752 -446.09571,-27.880799 -446.38086,-27.626901 C -446.66211,-27.372987 -446.80274,-27.019472 -446.80273,-26.566354"
       id="flowRoot7468" />
    <path
       sodipodi:type="arc"
       style="opacity:1;fill:#ededed;fill-opacity:1;stroke:#000000;stroke-width:0.89999998;stroke-linecap:round;stroke-linejoin:round;stroke-miterlimit:4;stroke-dasharray:none;stroke-opacity:1"
       id="path7476"
       sodipodi:cx="13.651215"
       sodipodi:cy="76.228836"
       sodipodi:rx="7.9082899"
       sodipodi:ry="7.9082899"
       d="M 19.472685,81.581549 A 7.9082899,7.9082899 0 1 1 19.472935,81.581276"
       sodipodi:start="0.74347273"
       sodipodi:end="7.0266112"
       sodipodi:open="true"
       transform="translate(369.2471,-62.523822)" />
    <path
       transform="translate(828.15296,38.443736)"
       style=""
       d="M -447.68164,-20.220651 L -447.68164,-21.298776 C -447.38477,-21.15815 -447.08399,-21.050728 -446.7793,-20.97651 C -446.47461,-20.90229 -446.17578,-20.865181 -445.88281,-20.865182 C -445.10157,-20.865181 -444.50586,-21.1269 -444.0957,-21.650338 C -443.68165,-22.17768 -443.44532,-22.976507 -443.38672,-24.046823 C -443.61329,-23.710881 -443.9004,-23.453069 -444.24805,-23.273385 C -444.59571,-23.093695 -444.98047,-23.003851 -445.40234,-23.003854 C -446.27735,-23.003851 -446.97071,-23.267522 -447.48242,-23.794869 C -447.99024,-24.326115 -448.24414,-25.050724 -448.24414,-25.968698 C -448.24414,-26.867128 -447.97852,-27.587831 -447.44727,-28.130807 C -446.91602,-28.673767 -446.20899,-28.945251 -445.32617,-28.94526 C -444.31446,-28.945251 -443.54297,-28.55658 -443.01172,-27.779244 C -442.47657,-27.0058 -442.20899,-25.880801 -442.20898,-24.404244 C -442.20899,-23.025335 -442.53712,-21.923774 -443.19336,-21.099557 C -443.84571,-20.279244 -444.72461,-19.869088 -445.83008,-19.869088 C -446.12696,-19.869088 -446.42774,-19.898385 -446.73242,-19.956979 C -447.03711,-20.015573 -447.35352,-20.103463 -447.68164,-20.220651 M -445.32617,-23.929635 C -444.79493,-23.929631 -444.375,-24.111272 -444.06641,-24.474557 C -443.75391,-24.837833 -443.59766,-25.33588 -443.59766,-25.968698 C -443.59766,-26.597597 -443.75391,-27.093691 -444.06641,-27.456979 C -444.375,-27.824159 -444.79493,-28.007752 -445.32617,-28.00776 C -445.85743,-28.007752 -446.2793,-27.824159 -446.5918,-27.456979 C -446.90039,-27.093691 -447.05469,-26.597597 -447.05469,-25.968698 C -447.05469,-25.33588 -446.90039,-24.837833 -446.5918,-24.474557 C -446.2793,-24.111272 -445.85743,-23.929631 -445.32617,-23.929635"
       id="flowRoot7478" />
    <path
       style="fill:none;fill-opacity:0.75;fill-rule:evenodd;stroke:#000000;stroke-width:1px;stroke-linecap:butt;stroke-linejoin:miter;stroke-opacity:1"
       d="M 296.98485,20.952859 L 252.79067,115.17484"
       id="path7486" />
    <path
       style="fill:none;fill-opacity:0.75;fill-rule:evenodd;stroke:#000000;stroke-width:1px;stroke-linecap:butt;stroke-linejoin:miter;stroke-opacity:1"
       d="M 329.15821,21.306412 L 261.45273,115.17484"
       id="path7488" />
    <path
       style="fill:none;fill-opacity:0.75;fill-rule:evenodd;stroke:#000000;stroke-width:1px;stroke-linecap:butt;stroke-linejoin:miter;stroke-opacity:1"
       d="M 359.5638,62.848936 L 380.42345,21.129636"
       id="path7490" />
  </g>
</svg>
