<?xml version="1.0" encoding="UTF-8" standalone="no"?>
<!-- Created with Inkscape (http://www.inkscape.org/) -->
<svg
   xmlns:dc="http://purl.org/dc/elements/1.1/"
   xmlns:cc="http://creativecommons.org/ns#"
   xmlns:rdf="http://www.w3.org/1999/02/22-rdf-syntax-ns#"
   xmlns:svg="http://www.w3.org/2000/svg"
   xmlns="http://www.w3.org/2000/svg"
   xmlns:xlink="http://www.w3.org/1999/xlink"
   xmlns:sodipodi="http://sodipodi.sourceforge.net/DTD/sodipodi-0.dtd"
   xmlns:inkscape="http://www.inkscape.org/namespaces/inkscape"
   width="670"
   height="440"
   id="svg2"
   sodipodi:version="0.32"
   inkscape:version="0.46"
   sodipodi:docbase="C:\Documents and Settings\kdr\Desktop"
   sodipodi:docname="Gun-type_fission_weapon_en-labels_thin_lines.svg"
   inkscape:output_extension="org.inkscape.output.svg.inkscape"
   version="1.0">
  <defs
     id="defs4">
    <inkscape:perspective
       sodipodi:type="inkscape:persp3d"
       inkscape:vp_x="0 : 175 : 1"
       inkscape:vp_y="0 : 1000 : 0"
       inkscape:vp_z="670 : 175 : 1"
       inkscape:persp3d-origin="335 : 116.66667 : 1"
       id="perspective113" />
    <linearGradient
       id="linearGradient50676">
      <stop
         style="stop-color:#d6c679;stop-opacity:1;"
         offset="0"
         id="stop50678" />
      <stop
         style="stop-color:#cfb84a;stop-opacity:1;"
         offset="1"
         id="stop50680" />
    </linearGradient>
    <linearGradient
       id="linearGradient41863">
      <stop
         style="stop-color:#6f916f;stop-opacity:1;"
         offset="0"
         id="stop41865" />
      <stop
         style="stop-color:#141a14;stop-opacity:1;"
         offset="1"
         id="stop41867" />
    </linearGradient>
    <linearGradient
       inkscape:collect="always"
       id="linearGradient39905">
      <stop
         style="stop-color:#6f7c91;stop-opacity:1;"
         offset="0"
         id="stop39907" />
      <stop
         style="stop-color:#6f7c91;stop-opacity:0;"
         offset="1"
         id="stop39909" />
    </linearGradient>
    <linearGradient
       id="linearGradient38926">
      <stop
         style="stop-color:#5f8dd3;stop-opacity:1;"
         offset="0"
         id="stop38928" />
      <stop
         style="stop-color:#56647a;stop-opacity:1;"
         offset="1"
         id="stop38930" />
    </linearGradient>
    <linearGradient
       inkscape:collect="always"
       id="linearGradient38918">
      <stop
         style="stop-color:#5f8dd3;stop-opacity:1;"
         offset="0"
         id="stop38920" />
      <stop
         style="stop-color:#5f8dd3;stop-opacity:0;"
         offset="1"
         id="stop38922" />
    </linearGradient>
    <linearGradient
       id="linearGradient38910">
      <stop
         style="stop-color:#728c93;stop-opacity:1;"
         offset="0"
         id="stop38912" />
      <stop
         style="stop-color:#758e95;stop-opacity:0;"
         offset="1"
         id="stop38914" />
    </linearGradient>
    <filter
       inkscape:collect="always"
       id="filter19344">
      <feGaussianBlur
         inkscape:collect="always"
         stdDeviation="0.73931443"
         id="feGaussianBlur19346" />
    </filter>
    <filter
       inkscape:collect="always"
       id="filter20361">
      <feGaussianBlur
         inkscape:collect="always"
         stdDeviation="0.25755561"
         id="feGaussianBlur20363" />
    </filter>
    <linearGradient
       inkscape:collect="always"
       xlink:href="#linearGradient38910"
       id="linearGradient38916"
       x1="462.20294"
       y1="672.38837"
       x2="461.48831"
       y2="699.66241"
       gradientUnits="userSpaceOnUse"
       gradientTransform="translate(51.917343,40.205699)" />
    <linearGradient
       inkscape:collect="always"
       xlink:href="#linearGradient38918"
       id="linearGradient38924"
       x1="261.21039"
       y1="688.03735"
       x2="260.62357"
       y2="665.0564"
       gradientUnits="userSpaceOnUse"
       gradientTransform="translate(60.381809,40.710775)" />
    <radialGradient
       inkscape:collect="always"
       xlink:href="#linearGradient38926"
       id="radialGradient38932"
       cx="252.15933"
       cy="675.32275"
       fx="252.15933"
       fy="675.32275"
       r="7.5668225"
       gradientTransform="matrix(1,0,0,1.7842983,0,-529.65451)"
       gradientUnits="userSpaceOnUse" />
    <linearGradient
       inkscape:collect="always"
       xlink:href="#linearGradient39905"
       id="linearGradient39911"
       x1="608.73132"
       y1="684.75464"
       x2="650.80811"
       y2="684.75464"
       gradientUnits="userSpaceOnUse"
       gradientTransform="translate(55.452877,40.205699)" />
    <linearGradient
       inkscape:collect="always"
       xlink:href="#linearGradient41863"
       id="linearGradient41869"
       x1="394.82144"
       y1="725.04077"
       x2="722.85712"
       y2="642.18359"
       gradientUnits="userSpaceOnUse"
       gradientTransform="translate(51.917343,40.205699)" />
    <linearGradient
       inkscape:collect="always"
       xlink:href="#linearGradient50676"
       id="linearGradient50682"
       x1="699.75372"
       y1="682.57355"
       x2="479.53314"
       y2="795.29553"
       gradientUnits="userSpaceOnUse"
       gradientTransform="translate(13.345914,10.205699)" />
  </defs>
  <sodipodi:namedview
     id="base"
     pagecolor="#ffffff"
     bordercolor="#666666"
     borderopacity="1.0"
     inkscape:pageopacity="0.0"
     inkscape:pageshadow="2"
     inkscape:zoom="1.2737981"
     inkscape:cx="442.51018"
     inkscape:cy="201.42857"
     inkscape:document-units="px"
     inkscape:current-layer="layer1"
     inkscape:window-width="1280"
     inkscape:window-height="964"
     inkscape:window-x="448"
     inkscape:window-y="109"
     showguides="true"
     inkscape:guide-bbox="true"
     width="670px"
     height="350px"
     showgrid="false">
    <sodipodi:guide
       orientation="horizontal"
       position="515.68287"
       id="guide38934" />
  </sodipodi:namedview>
  <metadata
     id="metadata7">
    <rdf:RDF>
      <cc:Work
         rdf:about="">
        <dc:format>image/svg+xml</dc:format>
        <dc:type
           rdf:resource="http://purl.org/dc/dcmitype/StillImage" />
      </cc:Work>
    </rdf:RDF>
  </metadata>
  <g
     inkscape:label="Calque 1"
     inkscape:groupmode="layer"
     id="layer1"
     transform="translate(-116.36589,-489.64273)">
    <path
       id="path3981"
       d="M 696.34695,821.07844 C 692.81944,821.01524 622.34081,815.66972 538.18447,809.81683 L 384.06809,799.71184 C 377.94667,797.0581 368.20284,789.27899 361.63051,791.83097 C 358.90875,794.02141 356.17685,794.1806 352.83453,793.32378 C 351.59564,792.27436 350.28767,790.82566 350.27521,789.71863 C 350.25578,787.99321 346.49627,785.16474 322.33275,776.33976 C 305.8902,770.33462 292.00504,765.64364 291.63398,766.2066 L 186.04669,792.72967 C 168.0567,790.78563 149.94549,791.38577 132.12735,788.01691 C 132.01251,787.90455 131.33383,753.75602 130.94658,711.14915 L 130.24248,633.6821 L 162.76105,633.0238 C 180.64628,632.66174 217.06497,632.36476 243.69148,632.36384 L 289.60333,632.36218 C 290.99931,642.81434 289.52085,655.26266 293.35752,665.13225 C 294.04733,665.13989 306.70599,661.25543 321.48788,656.50009 L 348.98904,647.89868 L 348.39659,645.23014 C 347.9282,643.1204 347.74412,642.07729 349.87717,640.4174 C 351.36109,639.26264 353.86885,638.31785 355.44996,638.31785 C 357.03108,638.31785 357.65507,638.90236 357.65507,639.34395 C 357.65507,639.78554 358.55743,642.28417 359.27836,643.25955 C 360.5148,644.93237 361.85045,643.18353 376.88317,638.41263 L 392.82003,633.35479 L 421.47583,633.32117 C 437.23652,633.30269 474.28739,632.87534 503.81109,632.37152 C 533.33479,631.8677 588.87045,631.10115 627.22367,630.66807 C 665.57689,630.23498 700.56887,629.89985 704.98363,629.92331 C 712.05328,629.96088 712.0204,630.61208 717.7645,633.51887 C 728.69575,641.07101 736.59967,646.96358 742.21589,652.0172 C 755.42712,666.9351 759.65061,675.72115 764.24813,695.86783 C 768.65008,715.89594 767.68453,729.71557 763.91207,749.59028 C 762.54365,755.04964 760.13078,763.52232 758.24146,768.1098 C 756.35215,772.69728 753.00227,779.59154 750.64296,783.73904 C 747.81231,788.71512 745.04971,794.33922 739.09088,800.27459 C 732.59306,806.74682 728.59614,809.63719 723.54228,812.20135 C 719.67937,814.16127 714.06717,816.82841 710.14477,817.97401 C 705.80663,819.24102 700.24832,821.14833 696.34695,821.07844 z"
       style="fill:url(#linearGradient50682);fill-opacity:1"
       sodipodi:nodetypes="cccccssccccccccccccsssscccsssccccsssssc" />
    <path
       style="fill:url(#linearGradient41869);fill-opacity:1;fill-rule:evenodd;stroke:none;stroke-width:1px;stroke-linecap:butt;stroke-linejoin:miter;stroke-opacity:1"
       d="M 244.59591,694.3536 L 296.91734,669.53217 L 402.98877,668.81788 L 429.95306,687.38931 L 461.73877,668.99645 L 490.66734,682.38931 L 619.0602,687.21074 L 654.23877,663.1036 L 681.02448,665.06788 L 712.8102,688.28217 L 731.91734,706.31788 L 730.13163,748.81788 L 682.63163,781.13931 L 629.77448,784.53217 L 597.8102,775.78217 L 567.63163,781.13931 L 542.09591,766.8536 L 519.41734,774.3536 L 451.02448,768.46074 L 398.34591,749.71074 L 370.3102,762.92502 L 342.09591,753.28217 L 291.91734,751.31788 L 246.02448,733.28217 L 244.59591,694.3536 z"
       id="path39923" />
    <path
       style="fill:#d3bc5f;fill-opacity:1;fill-rule:evenodd;stroke:none;stroke-width:0.94276094px;stroke-linecap:butt;stroke-linejoin:miter;stroke-opacity:1"
       d="M 138.45603,632.89178 L 184.14922,632.36068 L 186.0531,790.0965 L 138.13872,785.49366 L 138.45603,632.89178 z"
       id="path2242" />
    <path
       id="path3234"
       d="M 132.8576,633.25373 L 143.08252,632.71782 L 142.66025,787.23935 L 132.98099,787.23768 L 132.8576,633.25373 z"
       style="fill:#c8ab37;fill-opacity:1;fill-rule:evenodd;stroke:none;stroke-width:0.94276094px;stroke-linecap:butt;stroke-linejoin:miter;stroke-opacity:1"
       sodipodi:nodetypes="ccccc" />
    <path
       style="opacity:0.42448982;fill:#786721;fill-rule:evenodd;stroke:none;stroke-width:1px;stroke-linecap:butt;stroke-linejoin:miter;stroke-opacity:1"
       d="M 293.47425,665.74194 L 391.97681,643.84772 L 709.41725,638.03934 L 735.93375,646.3731 L 726.58984,638.29188 L 710.17486,629.95812 L 704.11395,629.45304 L 390.71412,633.24112 L 359.65193,643.59518 L 359.65193,647.38325 L 356.36893,649.90863 L 351.31817,650.16117 L 349.29787,647.13071 L 293.47425,665.74194 z"
       id="path5210"
       sodipodi:nodetypes="cccccccccccccc" />
    <path
       style="opacity:0.69387758;fill:#504416;fill-rule:evenodd;stroke:none;stroke-width:1px;stroke-linecap:butt;stroke-linejoin:miter;stroke-opacity:1"
       d="M 286.48405,760.0955 L 386.84119,788.8455 L 493.44833,795.80978 L 502.55548,800.0955 L 567.01976,805.27407 L 587.91262,807.05978 L 602.91262,806.52407 L 607.3769,803.30978 L 692.01976,808.8455 L 728.44833,790.98836 L 762.73405,751.16693 L 756.48405,770.27407 L 747.19833,788.30978 L 731.30548,805.80978 L 713.6269,815.80978 L 701.66262,818.48836 L 385.23405,797.77407 L 286.48405,760.0955 z"
       id="path6183" />
    <path
       sodipodi:type="arc"
       style="opacity:0.69387758;fill:#454837;fill-opacity:1;stroke:none;stroke-width:3;stroke-linecap:butt;stroke-linejoin:miter;stroke-miterlimit:4;stroke-dasharray:none;stroke-opacity:1"
       id="path8209"
       sodipodi:cx="299.86606"
       sodipodi:cy="600.39789"
       sodipodi:rx="4.7767859"
       sodipodi:ry="2.9464285"
       d="M 304.64284,600.39789 A 4.7767859,2.9464285 0 1 1 295.08927,600.39789 A 4.7767859,2.9464285 0 1 1 304.64284,600.39789 z"
       transform="matrix(0.9090944,-0.3570048,0.3940052,0.5694422,-157.11516,405.40819)" />
    <path
       style="opacity:0.47346939;fill:#786721;fill-rule:evenodd;stroke:none;stroke-width:1px;stroke-linecap:butt;stroke-linejoin:miter;stroke-opacity:1"
       d="M 491.45997,787.59744 L 500.04627,787.86942 L 499.54119,790.72515 C 499.54119,790.72515 500.42507,794.26082 503.96061,794.66877 C 507.49614,795.07674 524.795,799.70031 566.59006,801.87611 C 598.83269,803.44034 600.94115,807.75306 608.8902,796.43662 L 608.63766,799.42833 L 607.62751,803.37196 L 604.09198,806.63565 L 601.44033,807.58757 L 535.27534,804.32387 L 498.02596,798.47642 L 493.354,795.21273 L 491.83878,791.54108 L 491.45997,787.59744 z"
       id="path8213"
       sodipodi:nodetypes="cccsccccccccccc" />
    <path
       style="opacity:0.55918364;fill:#786721;fill-rule:evenodd;stroke:none;stroke-width:1px;stroke-linecap:butt;stroke-linejoin:miter;stroke-opacity:1"
       d="M 503.203,652.64644 L 495.87939,655.42436 L 491.83878,660.22259 L 490.82863,666.03097 L 490.57609,667.79873 L 612.55201,670.07158 L 614.31978,668.80889 L 615.32993,665.02081 L 612.29947,666.03097 L 500.17254,664.76828 L 500.17254,659.46497 L 505.2233,653.15152 L 503.203,652.64644 z"
       id="path12445" />
    <path
       id="path3973"
       d="M 471.2765,674.48471 C 469.214,673.63537 466.13015,672.28845 464.42349,671.49155 C 461.34048,670.05198 461.2229,670.10486 446.18058,679.69654 C 436.3578,685.95999 430.47012,689.1315 429.4161,688.72703 C 428.52259,688.38416 422.2505,684.28479 415.47813,679.61732 L 403.16472,671.13102 L 350.29726,671.13102 L 297.42981,671.13102 L 271.47816,683.11034 L 245.5265,695.08965 L 245.7286,710.36034 C 245.83975,718.75921 246.18606,726.98102 246.49817,728.63102 C 247.04918,731.54405 247.8116,731.91142 272.79607,741.30271 L 298.5265,750.9744 L 321.5265,751.45804 L 344.5265,751.94168 L 357.42609,756.57229 L 370.32567,761.2029 L 383.78831,754.66696 C 391.19275,751.07219 397.74627,748.13102 398.35166,748.13102 C 398.95706,748.13102 411.39407,752.46155 425.98945,757.75443 L 452.5265,767.37783 L 485.71913,769.94168 L 518.91175,772.50553 L 530.39972,768.90381 L 541.88769,765.30209 L 554.94411,772.31169 L 568.00052,779.3213 L 583.26351,776.76969 L 598.5265,774.21809 L 613.5265,778.6062 C 621.7765,781.01966 630.1015,783.02635 632.0265,783.06552 C 633.9515,783.10469 645.6515,782.41427 658.0265,781.53126 C 678.0436,780.10295 680.97396,779.6692 684.58136,777.60061 C 686.81154,776.32176 691.3733,773.21793 694.7186,770.70322 C 698.06391,768.18851 701.10795,766.13102 701.48314,766.13102 C 701.85833,766.13102 708.14398,762.03829 715.45124,757.03606 L 728.73716,747.9411 L 729.4509,727.38265 L 730.16464,706.82421 L 723.84557,700.42206 C 720.37008,696.90088 712.87333,690.33241 707.18613,685.82547 C 701.49892,681.31852 693.14569,675.11527 688.62339,672.04046 L 680.40102,666.44989 L 667.17488,665.75165 L 653.94874,665.05341 L 636.93943,676.66143 L 619.93013,688.26945 L 555.22831,685.83572 L 490.5265,683.40198 L 483.63258,680.24375 M 610.80143,650.13522 C 612.60263,651.23341 614.51513,653.28603 615.05143,654.69658 C 615.58772,656.10713 616.0265,659.87682 616.0265,663.07367 C 616.0265,667.05814 615.54775,669.28345 614.50423,670.1495 C 613.29676,671.15162 601.56141,671.27544 557.75423,670.74826 C 527.37898,670.38273 499.714,669.81689 496.2765,669.49084 C 490.38642,668.93216 490.0265,668.75016 490.0265,666.33025 C 490.0265,664.91797 490.95364,661.84724 492.08682,659.50642 C 493.70326,656.16729 495.04977,654.91696 498.33682,653.70282 C 500.64114,652.85167 505.4515,651.7146 509.0265,651.17598 C 512.6015,650.63738 523.6265,649.72112 533.5265,649.13986 C 557.55162,647.71463 588.86988,648.03358 609.16041,649.10863 M 696.0265,820.86055 C 693.5515,820.83607 679.8265,819.98531 665.5265,818.96998 C 651.2265,817.95465 581.9265,813.11094 511.5265,808.20617 L 383.5265,799.28841 L 372.63524,795.20971 C 366.64504,792.96643 361.58254,791.13102 361.38524,791.13102 C 361.18793,791.13102 361.0265,791.80602 361.0265,792.63102 C 361.0265,793.68148 359.96704,794.13102 357.49132,794.13102 C 355.54697,794.13102 352.85076,793.40675 351.49974,792.52153 C 349.75724,791.3798 349.19239,790.28996 349.55617,788.77153 C 350.0308,786.79042 347.89841,785.82926 320.92031,775.86416 C 296.82949,766.96556 294.3232,765.71472 293.39542,766.85122 C 292.77801,767.60753 286.8265,768.56096 283.5265,769.43294 C 280.2265,770.30493 256.8265,775.82178 231.5265,781.69263 L 186.28411,792.11434 L 158.2765,790.04758 L 131.02649,787.72827 L 131.02455,737.17964 C 131.02348,709.3779 130.72767,674.20946 130.3672,659.02756 L 129.7118,631.42409 L 209.44334,630.68507 C 253.29568,630.27861 289.41183,630.18301 289.70144,630.47262 C 289.99105,630.76223 290.47498,638.47616 290.77684,647.61469 C 291.15421,659.03917 292.9953,664.36964 293.75192,664.12075 C 294.35715,663.92166 305.80099,659.50258 320.80314,654.60924 C 340.33321,648.23901 347.93022,645.34573 347.55314,644.42164 C 347.26349,643.7118 346.76041,642.47439 346.43518,641.67185 C 346.05174,640.72566 347.01851,639.49654 349.18518,638.17559 C 351.02291,637.05519 353.44034,636.13681 354.55726,636.13476 C 355.88587,636.13231 356.96999,637.14296 357.69275,639.05776 L 358.79747,641.98451 L 373.99687,637.14046 C 384.85901,633.6787 391.52624,632.13589 397.36138,631.73389 C 401.8522,631.4245 439.2765,630.8926 480.5265,630.55189 C 527.11192,629.23383 573.08272,628.70727 619.68383,628.79446 C 647.00313,628.42957 678.54733,628.13102 689.78205,628.13102 L 710.20881,628.13102 L 718.86765,632.63254 C 723.63002,635.10838 730.71595,639.78369 734.61416,643.02212 C 738.51238,646.26055 744.02453,651.99736 746.86338,655.7706 C 749.70224,659.54383 753.77916,666.00602 755.92321,670.13102 C 758.06726,674.25602 760.99641,681.37879 762.43244,685.9594 C 763.86847,690.54001 765.71279,698.41501 766.53093,703.4594 C 767.34907,708.50379 768.02027,716.83533 768.02248,721.97394 C 768.02482,727.42383 767.18533,735.44455 766.00776,741.22297 C 764.89746,746.67133 762.59532,755.29202 760.89191,760.38005 C 759.18849,765.46808 756.21506,772.78102 754.28427,776.63102 C 752.35348,780.48102 749.1837,786.03594 747.24031,788.97529 C 745.29692,791.91464 741.48917,796.74609 738.77863,799.71185 C 736.0681,802.6776 730.62751,807.25511 726.68844,809.88408 C 722.69002,812.55266 716.21366,815.71715 712.0265,817.04823 C 707.9015,818.35954 703.6265,819.76378 702.5265,820.16875 C 701.4265,820.57373 698.5015,820.88504 696.0265,820.86055 z M 569.8276,632.94619 C 567.30433,632.7723 520.16976,632.51597 474.87699,633.14824 C 394.50235,634.27024 392.40802,634.3487 387.58854,636.41842 C 384.87266,637.58475 380.03606,640.63732 376.84052,643.2019 C 373.64499,645.76649 369.28838,650.06218 367.15917,652.7479 C 365.02995,655.43362 362.09648,659.99352 360.64034,662.88102 L 357.99281,668.13102 L 380.93851,668.13102 L 403.8842,668.13102 L 416.99346,677.14581 C 427.4845,684.36013 430.46043,685.96916 431.8937,685.20209 C 432.87874,684.67491 439.71194,680.36966 447.0786,675.63487 C 456.83341,669.36513 461.06355,667.17449 462.64784,667.57212 C 463.84426,667.8724 470.60365,670.8542 477.6687,674.19833 C 484.73375,677.54246 491.642,680.46202 493.02037,680.68625 C 494.39874,680.91047 523.26154,682.06699 557.15991,683.25628 L 618.79332,685.41863 L 636.01819,673.7235 L 653.24306,662.02837 L 667.79871,663.04979 L 682.35435,664.07121 L 688.44042,668.29827 C 691.78777,670.62316 699.0265,675.89662 704.5265,680.01707 C 710.0265,684.13753 718.71958,691.62688 723.84446,696.66008 L 733.16242,705.81136 L 732.56263,720.72119 C 732.23275,728.9216 731.71944,738.83309 731.42194,742.74674 C 730.93665,749.13071 730.58441,750.08175 727.99663,751.99498 C 726.41021,753.16787 715.53013,760.56067 703.81867,768.42342 L 682.5251,782.71933 L 655.98009,784.49768 L 629.43508,786.27602 L 613.79598,781.78685 L 598.15689,777.29768 L 582.65408,779.8145 L 567.15127,782.33133 L 554.49557,775.38509 L 541.83987,768.43886 L 530.74587,771.9388 L 519.65187,775.43874 L 485.60001,772.81649 L 451.54815,770.19424 L 424.88861,760.56281 L 398.22907,750.93138 L 384.14886,757.67805 L 370.06865,764.42471 L 364.45859,762.27787 C 361.37306,761.0971 358.64239,760.13102 358.39044,760.13102 C 358.13848,760.13102 360.07504,764.29352 362.69389,769.38102 C 366.33005,776.44477 369.23648,780.40366 374.99097,786.13102 C 379.13551,790.25602 384.1015,794.45467 386.0265,795.46134 C 389.0658,797.05074 408.94181,798.64812 537.0265,807.59679 C 618.1515,813.26461 688.21577,817.95347 692.72488,818.01647 C 698.90258,818.10279 702.84615,817.52357 708.72488,815.66647 C 713.01577,814.31097 719.2265,811.58539 722.5265,809.60963 C 725.8265,807.63386 731.36137,803.23041 734.8262,799.82418 C 738.29104,796.41794 743.40877,790.08231 746.19895,785.745 C 748.98912,781.4077 753.07059,773.55444 755.26888,768.29332 C 757.46716,763.03221 760.6409,753.53092 762.32163,747.17934 C 764.98606,737.11031 765.3839,733.90173 765.4275,722.13102 C 765.46191,712.84002 764.92084,705.98091 763.69206,700.13102 C 762.71006,695.45602 760.64149,687.93098 759.09523,683.40871 C 757.54897,678.88643 754.31344,671.74171 751.90517,667.53154 C 749.4969,663.32137 744.88554,656.99407 741.6577,653.47088 C 738.42986,649.94769 733.25486,645.13543 730.1577,642.77697 C 727.06054,640.4185 722.0515,637.11184 719.0265,635.42884 C 716.0015,633.74583 711.94093,631.86406 710.00302,631.24713 C 707.42387,630.42606 688.97363,630.37399 641.16173,631.05284 C 605.23694,631.56292 575.60252,632.22167 575.30746,632.51673 M 588.34224,807.95077 C 580.19358,807.85164 571.2765,807.62866 568.5265,807.45528 C 565.7765,807.28189 554.3015,806.44721 543.0265,805.60042 C 531.7515,804.75364 518.09761,803.40727 512.68452,802.6085 C 507.27143,801.80973 501.0584,800.62165 498.8778,799.96832 C 496.63574,799.29658 494.06516,797.58969 492.96162,796.0399 C 491.88832,794.53259 490.73259,791.91146 490.39333,790.21518 L 489.7765,787.13102 L 500.47859,787.13102 C 506.36475,787.13102 529.7085,787.79462 552.35359,788.60568 C 574.99869,789.41675 596.60276,790.29381 600.36263,790.55472 C 604.12251,790.81563 607.83501,791.55713 608.61263,792.2025 C 609.39026,792.84788 610.0265,794.68526 610.0265,796.28558 C 610.0265,797.8859 609.3896,800.71958 608.61116,802.58265 C 607.83272,804.44571 606.2873,806.45626 605.1769,807.05053 C 603.94298,807.7109 597.39729,808.06094 588.34224,807.95077 z M 592.72074,806.11571 C 600.85386,806.12925 602.20602,805.87135 604.43683,803.88102 C 606.18011,802.32566 607.04633,800.40564 607.24259,797.66192 L 607.5265,793.69282 L 602.5265,792.95917 C 599.7765,792.55565 577.7265,791.52474 553.5265,790.66824 C 529.3265,789.81174 505.814,789.11548 501.2765,789.121 C 493.95939,789.12989 493.0265,789.33746 493.0265,790.95671 C 493.0265,791.96083 494.04979,793.74372 495.30047,794.91868 C 496.55116,796.09363 500.48866,797.71686 504.05047,798.52585 C 507.61229,799.33483 514.8015,800.48295 520.0265,801.07722 C 525.2515,801.6715 538.5265,802.82624 549.5265,803.64331 C 563.92228,804.45426 578.30168,805.83285 592.72074,806.11571 z M 379.45316,795.01746 C 379.96283,795.07992 377.88827,792.69842 374.84303,789.72524 C 371.79778,786.75205 367.48978,781.53946 365.26968,778.1417 C 363.04958,774.74393 359.94914,769.11046 358.37981,765.62288 L 355.5265,759.28182 L 348.0265,756.78451 C 341.16261,754.49901 338.61816,754.24638 318.0265,753.80581 C 300.1711,753.42379 294.49437,752.96556 290.5265,751.58599 C 287.7765,750.62986 285.0765,749.5371 284.5265,749.15763 C 283.9765,748.77816 274.67074,745.138 263.84703,741.06838 L 244.16756,733.66907 L 243.62021,725.65005 C 243.31917,721.23958 242.80292,712.2017 242.47298,705.56587 L 241.8731,693.50072 L 269.41875,680.81587 L 296.9644,668.13102 L 326.24545,668.12732 L 355.5265,668.12362 L 358.76574,661.87732 C 360.54732,658.44186 364.04494,653.03901 366.53822,649.871 C 369.0315,646.703 372.97385,642.6994 375.29898,640.97412 C 377.62412,639.24884 378.8515,638.06856 378.0265,638.35127 C 377.2015,638.63399 373.21293,639.93011 369.16302,641.23154 C 363.80519,642.95327 361.57526,644.18767 360.97614,645.76349 C 360.52327,646.95462 359.12421,648.6496 357.86711,649.5301 C 356.61002,650.41061 354.35398,651.13102 352.85368,651.13102 C 351.35339,651.13102 349.74874,650.4571 349.28778,649.63342 C 348.57832,648.36568 345.69281,649.06173 330.48809,654.16837 C 320.60922,657.48627 307.3515,661.7095 301.0265,663.55331 C 289.6522,666.86906 289.22865,666.91369 262.2765,667.63664 C 247.289,668.03866 235.04936,668.65185 235.07729,668.9993 C 235.10522,669.34675 238.48674,672.02595 242.59177,674.95308 C 246.6968,677.88021 249.79235,680.70086 249.47078,681.22118 C 249.14279,681.75187 247.70953,681.32508 246.20629,680.24911 C 244.73241,679.19415 230.4765,668.65051 214.5265,656.8188 C 198.5765,644.9871 185.40311,635.42799 185.2523,635.57634 C 185.10149,635.72469 191.514,646.05922 199.50231,658.54196 C 207.49061,671.0247 214.0265,681.48822 214.0265,681.79422 C 214.0265,682.10023 211.7794,684.80928 209.03295,687.81434 C 205.16055,692.05136 203.55951,694.858 201.90203,700.31491 C 200.2783,705.66068 199.91082,708.75018 200.37288,713.17092 C 200.70741,716.37147 201.87549,721.34391 202.96861,724.2208 C 204.06174,727.09768 206.65946,731.92183 208.74131,734.94113 C 210.82317,737.96044 212.94106,740.9858 213.44775,741.66416 C 214.07753,742.50732 210.83467,748.91832 203.19775,761.92794 C 197.05356,772.39466 189.57946,784.80495 189.57946,785.13273 C 189.57946,785.46051 197.55848,779.41944 203.47098,775.38728 C 209.38348,771.35512 222.00873,762.88644 231.9696,755.96722 C 241.93225,749.04677 250.52268,742.90325 250.80828,743.38974 C 251.07667,743.84693 250.62406,744.91381 249.52493,745.6707 C 248.42579,746.42759 245.80008,748.3033 243.69002,749.83894 C 241.57995,751.37458 240.45495,752.73512 241.19002,752.86236 C 241.92508,752.9896 249.7265,753.75146 258.5265,754.55538 C 271.29207,755.72158 277.15387,756.61157 283.53665,758.95794 C 287.93665,760.57542 306.83665,767.60892 325.53665,774.58793 C 344.23665,781.56695 363.0265,788.99309 368.5265,791.09048 C 374.0265,793.18786 378.9435,794.955 379.45316,795.01746 z M 357.75303,792.40572 C 358.52738,792.10857 358.79319,791.56068 358.34372,791.18817 C 357.89425,790.81566 356.289,789.98506 354.7765,789.34239 C 352.29395,788.28754 352.0265,788.37206 352.0265,790.21148 C 352.0265,791.33214 352.38549,792.02719 352.82425,791.75602 C 353.26301,791.48485 354.2347,791.64166 354.98356,792.10448 C 355.73243,792.56731 356.97869,792.70286 357.75303,792.40572 z M 182.48273,633.13102 L 164.12581,633.13813 C 154.44619,633.14204 143.48899,633.43211 139.77649,633.78273 L 133.02649,634.42023 L 133.02649,709.71435 L 133.02649,785.00847 L 186.77397,788.91686 L 182.48273,633.13102 z M 476.10983,678.43566 C 476.339,678.60321 479.67905,680.16285 483.53216,681.90151 L 490.53782,685.06272 L 550.21324,687.59687 C 583.03472,688.99065 612.52213,690.13102 615.74083,690.13102 C 621.48867,690.13102 621.87767,689.94424 637.55975,679.6542 C 652.91645,669.57767 653.73664,669.17672 659.0265,669.16019 C 662.0515,669.15074 668.33465,669.43938 672.98906,669.80162 L 681.45162,670.46024 L 696.10975,680.25205 C 704.17173,685.63754 714.47187,693.5283 718.99896,697.78706 L 727.23004,705.53026 L 726.55383,725.08064 C 726.18192,735.83335 725.67056,745.372 725.41748,746.27765 C 725.1644,747.1833 716.7604,753.3115 706.74192,759.89587 C 696.72344,766.48024 686.5063,773.12538 684.03717,774.66286 C 679.75525,777.32912 678.39228,777.55583 654.53717,779.56964 L 629.5265,781.681 L 613.5265,776.93571 L 597.5265,772.19042 L 582.56864,774.51108 L 567.61078,776.83175 L 554.82813,769.91083 L 542.04548,762.98991 L 530.60274,766.75599 L 519.16001,770.52207 L 485.5285,767.74242 L 451.89699,764.96276 L 425.89145,756.04689 C 411.5884,751.14316 399.19732,747.13102 398.35572,747.13102 C 397.51411,747.13102 391.18117,749.83102 384.28251,753.13102 C 377.38385,756.43102 371.13718,759.13102 370.40102,759.13102 C 369.66486,759.13102 362.88259,756.88102 355.32931,754.13102 L 341.59607,749.13102 L 319.81252,749.13102 L 298.02896,749.13102 L 273.65783,739.43002 L 249.28669,729.72903 L 248.57241,712.84754 C 248.17956,703.56273 248.00851,695.85467 248.19232,695.71853 C 248.37612,695.58239 259.24107,690.66951 272.33666,684.80101 L 296.14682,674.13102 L 349.83666,674.13131 L 403.5265,674.13159 L 416.76072,682.57277 L 429.99493,691.01394 L 445.22546,681.57248 C 453.60225,676.37968 460.7674,672.13102 461.14802,672.13102 C 461.52865,672.13102 464.80701,673.4622 468.43328,675.0892 M 590.5265,668.92993 C 602.0765,669.02369 612.14672,668.70755 612.90477,668.22741 C 613.91779,667.58578 614.16514,665.72448 613.83815,661.20389 C 613.50402,656.58458 612.84287,654.50285 611.18249,652.84218 C 609.32047,650.97984 607.62871,650.57513 600.45847,650.27673 L 548.2542,650.48376 C 537.03244,650.84568 523.50299,651.61597 518.18875,652.19551 C 512.87451,652.77505 506.12203,653.86587 503.18322,654.61955 C 500.24442,655.37323 496.98445,656.76409 495.93884,657.71035 C 494.89322,658.65662 493.5974,661.02558 493.05922,662.9747 C 492.52104,664.92382 492.32967,666.76753 492.63397,667.07182 C 492.93826,667.37611 510.36356,667.88031 531.35686,668.19227 C 552.35016,668.50423 578.9765,668.83617 590.5265,668.92993 z M 353.98808,648.61556 C 355.38421,648.27122 356.94049,647.58485 357.44647,647.09028 C 358.00527,646.54409 357.84429,644.60894 357.03641,642.16105 C 356.16508,639.52088 355.11003,638.13102 353.97722,638.13102 C 353.02619,638.13102 351.25845,638.93236 350.04892,639.91178 C 347.87544,641.67176 347.87078,641.73661 349.64972,645.46708 C 351.21068,648.74045 351.78671,649.1585 353.98808,648.61556 z"
       style="fill:#241c1c"
       sodipodi:nodetypes="cssscccccccscccccccsccccccccccccsssscccccsccccccccccsssssssssczcscccssssssssccccccccsssssssscccscccccssssssssssssssccsssscccccssssscccccccscccsscccccccccccccccccccssssscsssssssssssssssccssssscccssssssccscccsssssscccsscccsssccccccccccsssssssssssssssssssssssssscssssssssssccssssscccccccccccccsssccccccssscccccccccccccssscccccccscccccccsscsssccssssssccsssssc" />
    <path
       style="opacity:1;fill:#a0892c;fill-rule:evenodd;stroke:none;stroke-width:1px;stroke-linecap:butt;stroke-linejoin:miter;stroke-opacity:1"
       d="M 185.24877,635.58021 L 218.13129,683.00626 C 218.13129,683.00626 202.61001,687.26109 202.4694,710.96599 C 202.32878,734.41836 217.65564,742.57313 217.65564,742.57313 L 190.04571,784.98741 L 185.24877,635.58021 z"
       id="path3262"
       sodipodi:nodetypes="cczccc" />
    <path
       sodipodi:nodetypes="cczccc"
       id="path4233"
       d="M 186.81593,684.84295 L 218.44897,683.19401 C 218.44897,683.19401 202.71518,687.34625 202.57344,711.05115 C 202.43169,734.50352 217.88198,742.65829 217.88198,742.65829 L 188.59036,742.05497 L 186.81593,684.84295 z"
       style="opacity:1;fill:#7e7139;fill-opacity:1;fill-rule:evenodd;stroke:none;stroke-width:1px;stroke-linecap:butt;stroke-linejoin:miter;stroke-opacity:1" />
    <path
       sodipodi:nodetypes="cccc"
       id="path4235"
       d="M 185.22086,635.48534 L 247.74624,681.43818 L 186.80352,684.8479 L 185.22086,635.48534 z"
       style="opacity:0.48979594;fill:#6c6753;fill-rule:evenodd;stroke:none;stroke-width:1px;stroke-linecap:butt;stroke-linejoin:miter;stroke-opacity:1" />
    <path
       style="opacity:0.48979594;fill:#918a6f;fill-rule:evenodd;stroke:none;stroke-width:1px;stroke-linecap:butt;stroke-linejoin:miter;stroke-opacity:1"
       d="M 188.73504,742.00398 L 250.43966,743.19444 L 190.00203,784.86368 L 188.73504,742.00398 z"
       id="path5206"
       sodipodi:nodetypes="cccc" />
    <path
       style="fill:#374548;fill-rule:evenodd;stroke:none;stroke-width:1px;stroke-linecap:butt;stroke-linejoin:miter;stroke-opacity:1"
       d="M 266.13527,692.54433 C 257.85844,696.16047 250.70375,698.66118 250.56981,698.75752 C 250.38861,698.88784 250.55222,706.26211 250.93947,715.14941 L 251.12854,727.58709 L 270.34851,735.09506 L 705.33628,754.91303 C 712.441,750.20482 720.79879,747.84386 720.99689,747.15548 C 721.24637,746.2886 721.77007,737.16736 722.13669,726.875 L 722.7836,708.14996 L 714.68182,700.73173 C 713.14087,699.32414 710.90879,697.49183 708.33593,695.49709 L 266.13527,692.54433 z"
       id="path16351"
       sodipodi:nodetypes="csccccsccccc" />
    <path
       style="fill:#786721;fill-rule:evenodd;stroke:none;stroke-width:1px;stroke-linecap:butt;stroke-linejoin:miter;stroke-opacity:1"
       d="M 213.70305,654.63585 L 224.18883,632.9535 L 287.45305,632.25407 L 278.01584,666.17645 L 233.10174,667.92503 L 213.70305,654.63585 z"
       id="path7232"
       sodipodi:nodetypes="cccccc" />
    <path
       sodipodi:nodetypes="ccccc"
       id="path8203"
       d="M 257.77425,632.86961 L 287.63162,632.50661 L 278.42907,666.15075 L 268.22208,666.53607 L 257.77425,632.86961 z"
       style="fill:#a0892c;fill-rule:evenodd;stroke:none;stroke-width:1px;stroke-linecap:butt;stroke-linejoin:miter;stroke-opacity:1" />
    <path
       style="fill:#22280b;fill-rule:evenodd;stroke:#000000;stroke-width:1px;stroke-linecap:butt;stroke-linejoin:miter;stroke-opacity:1"
       d="M 185.13163,633.63931 L 212.27448,653.55002 L 222.54234,632.21074 L 185.13163,633.63931 z"
       id="path8205"
       sodipodi:nodetypes="cccc" />
    <path
       sodipodi:nodetypes="cccc"
       id="path8207"
       d="M 289.21396,635.41686 L 280.77548,665.2254 L 290.36729,664.25918 L 289.21396,635.41686 z"
       style="fill:#454837;fill-rule:evenodd;stroke:#000000;stroke-width:0.91712463px;stroke-linecap:butt;stroke-linejoin:miter;stroke-opacity:1" />
    <path
       sodipodi:nodetypes="cccccc"
       id="path9184"
       d="M 224.76986,763.57444 L 238.91635,753.94566 L 274.23414,758.15694 L 287.56479,763.06147 L 285.84265,767.13147 L 224.76986,763.57444 z"
       style="fill:#786721;fill-rule:evenodd;stroke:none;stroke-width:1px;stroke-linecap:butt;stroke-linejoin:miter;stroke-opacity:1" />
    <path
       style="fill:#a0892c;fill-rule:evenodd;stroke:none;stroke-width:1px;stroke-linecap:butt;stroke-linejoin:miter;stroke-opacity:1"
       d="M 274.11353,758.13747 L 287.63162,763.04232 L 285.8621,767.13289 L 269.62833,766.17893 L 274.11353,758.13747 z"
       id="path9186"
       sodipodi:nodetypes="ccccc" />
    <path
       style="fill:#454837;fill-rule:evenodd;stroke:#000000;stroke-width:0.91712463px;stroke-linecap:butt;stroke-linejoin:miter;stroke-opacity:1"
       d="M 221.78628,765.22146 L 189.10414,788.71655 L 283.04369,768.05235 L 221.78628,765.22146 z"
       id="path9188"
       sodipodi:nodetypes="cccc" />
    <path
       sodipodi:type="arc"
       style="opacity:0.49387758;fill:#cac786;fill-opacity:1;stroke:#000000;stroke-width:1;stroke-linecap:butt;stroke-linejoin:miter;stroke-miterlimit:4;stroke-dasharray:none;stroke-opacity:1"
       id="path9190"
       sodipodi:cx="535.38086"
       sodipodi:cy="499.61932"
       sodipodi:rx="2.1465743"
       sodipodi:ry="2.0834396"
       d="M 537.52743,499.61932 A 2.1465743,2.0834396 0 1 1 533.23429,499.61932 A 2.1465743,2.0834396 0 1 1 537.52743,499.61932 z"
       transform="matrix(1.2299853,-3.5565776e-2,3.7732577e-2,0.6539459,-102.24282,490.49947)" />
    <path
       transform="matrix(1.2299853,-3.5565776e-2,3.7732577e-2,0.6539459,-108.95974,489.83321)"
       d="M 537.52743,499.61932 A 2.1465743,2.0834396 0 1 1 533.23429,499.61932 A 2.1465743,2.0834396 0 1 1 537.52743,499.61932 z"
       sodipodi:ry="2.0834396"
       sodipodi:rx="2.1465743"
       sodipodi:cy="499.61932"
       sodipodi:cx="535.38086"
       id="path10161"
       style="opacity:0.49387758;fill:#cac786;fill-opacity:1;stroke:#000000;stroke-width:1;stroke-linecap:butt;stroke-linejoin:miter;stroke-miterlimit:4;stroke-dasharray:none;stroke-opacity:1"
       sodipodi:type="arc" />
    <path
       sodipodi:type="arc"
       style="opacity:0.49387758;fill:#cac786;fill-opacity:1;stroke:#000000;stroke-width:1;stroke-linecap:butt;stroke-linejoin:miter;stroke-miterlimit:4;stroke-dasharray:none;stroke-opacity:1"
       id="path10163"
       sodipodi:cx="535.38086"
       sodipodi:cy="499.61932"
       sodipodi:rx="2.1465743"
       sodipodi:ry="2.0834396"
       d="M 537.52743,499.61932 A 2.1465743,2.0834396 0 1 1 533.23429,499.61932 A 2.1465743,2.0834396 0 1 1 537.52743,499.61932 z"
       transform="matrix(1.2299853,-3.5565776e-2,3.7732577e-2,0.6539459,-95.378766,491.02544)" />
    <path
       transform="matrix(1.2299853,-3.5565776e-2,3.7732577e-2,0.6539459,-102.56133,495.11961)"
       d="M 537.52743,499.61932 A 2.1465743,2.0834396 0 1 1 533.23429,499.61932 A 2.1465743,2.0834396 0 1 1 537.52743,499.61932 z"
       sodipodi:ry="2.0834396"
       sodipodi:rx="2.1465743"
       sodipodi:cy="499.61932"
       sodipodi:cx="535.38086"
       id="path10171"
       style="opacity:0.49387758;fill:#cac786;fill-opacity:1;stroke:#000000;stroke-width:1;stroke-linecap:butt;stroke-linejoin:miter;stroke-miterlimit:4;stroke-dasharray:none;stroke-opacity:1"
       sodipodi:type="arc" />
    <path
       sodipodi:type="arc"
       style="opacity:0.49387758;fill:#cac786;fill-opacity:1;stroke:#000000;stroke-width:1;stroke-linecap:butt;stroke-linejoin:miter;stroke-miterlimit:4;stroke-dasharray:none;stroke-opacity:1"
       id="path10173"
       sodipodi:cx="535.38086"
       sodipodi:cy="499.61932"
       sodipodi:rx="2.1465743"
       sodipodi:ry="2.0834396"
       d="M 537.52743,499.61932 A 2.1465743,2.0834396 0 1 1 533.23429,499.61932 A 2.1465743,2.0834396 0 1 1 537.52743,499.61932 z"
       transform="matrix(1.2299853,-3.5565776e-2,3.7732577e-2,0.6539459,-109.53079,494.43805)" />
    <path
       transform="matrix(1.2299853,-3.5565776e-2,3.7732577e-2,0.6539459,-95.741916,495.42237)"
       d="M 537.52743,499.61932 A 2.1465743,2.0834396 0 1 1 533.23429,499.61932 A 2.1465743,2.0834396 0 1 1 537.52743,499.61932 z"
       sodipodi:ry="2.0834396"
       sodipodi:rx="2.1465743"
       sodipodi:cy="499.61932"
       sodipodi:cx="535.38086"
       id="path10175"
       style="opacity:0.49387758;fill:#cac786;fill-opacity:1;stroke:#000000;stroke-width:1;stroke-linecap:butt;stroke-linejoin:miter;stroke-miterlimit:4;stroke-dasharray:none;stroke-opacity:1"
       sodipodi:type="arc" />
    <path
       style="fill:none;fill-rule:evenodd;stroke:#786721;stroke-width:1px;stroke-linecap:butt;stroke-linejoin:miter;stroke-opacity:1"
       d="M 574.41875,653.6566 L 569.74679,659.84379 L 569.87306,663.75813 L 600.05137,663.50559 L 605.85974,656.9396 L 605.98601,652.52018 L 577.19666,652.77272 L 574.41875,653.6566 z"
       id="path13416" />
    <rect
       style="opacity:1;fill:#a0892c;fill-opacity:1;stroke:#24221c;stroke-width:1.07041943;stroke-linecap:butt;stroke-linejoin:miter;stroke-miterlimit:4;stroke-dasharray:none;stroke-opacity:1"
       id="rect15368"
       width="2.5"
       height="37.033821"
       x="146.88524"
       y="758.32751"
       transform="matrix(0.9980706,-6.208913e-2,0.5414063,0.8407611,0,0)" />
    <path
       style="opacity:1;fill:#a0892c;fill-opacity:1;stroke:#24221c;stroke-width:0.99999994;stroke-linecap:butt;stroke-linejoin:miter;stroke-miterlimit:4;stroke-dasharray:none;stroke-opacity:1"
       d="M 569.71674,634.98547 C 575.03904,643.25058 585.17725,659.07693 585.17725,659.07693 L 587.38623,658.93951 C 587.38623,658.93951 576.92121,642.68815 572.27616,635.47478 C 570.12397,632.13259 573.13615,631.81539 575.36872,635.28239 C 579.92634,642.36001 590.47879,658.74712 590.47879,658.74712 L 592.68776,658.6097 C 592.68776,658.6097 581.48215,641.16368 576.92718,634.09017 C 572.4121,627.07862 565.96097,629.15306 569.71674,634.98547 z"
       id="rect15370"
       sodipodi:nodetypes="cccsscczs" />
    <rect
       y="766.1297"
       x="168.84875"
       height="29.231451"
       width="1.82222"
       id="rect15374"
       style="opacity:1;fill:#786721;fill-opacity:1;stroke:#24221c;stroke-width:1.07041943;stroke-linecap:butt;stroke-linejoin:miter;stroke-miterlimit:4;stroke-dasharray:none;stroke-opacity:1"
       transform="matrix(0.9980706,-6.208913e-2,0.5414063,0.8407611,0,0)" />
    <path
       style="opacity:1;fill:url(#linearGradient38916);fill-opacity:1;fill-rule:evenodd;stroke:none;stroke-width:1px;stroke-linecap:butt;stroke-linejoin:miter;stroke-opacity:1"
       d="M 264.82359,697.4557 C 261.68635,699.56848 257.46394,699.36552 254.51109,701.7682 C 255.02037,709.40044 254.46645,717.91516 255.57359,725.0182 C 265.13981,729.42598 275.20706,732.69158 285.88194,731.79408 C 425.33124,738.15003 564.78054,744.50599 704.22984,750.86195 C 708.19483,747.82408 714.46093,746.87505 717.29234,743.5182 C 717.80159,732.32134 718.80088,720.56801 718.35484,709.67445 C 713.17921,705.47797 708.57316,697.4797 700.66737,699.44793 C 610.94864,698.8797 521.14652,697.79579 431.47984,697.54945 C 424.91381,698.32081 418.40675,696.37772 411.76115,697.24421 C 363.4903,697.01262 315.21944,696.78104 266.94859,696.54945 C 266.24026,696.85153 265.53192,697.15362 264.82359,697.4557 z"
       id="path17342" />
    <g
       id="g21340"
       transform="translate(41.120117,-63.531621)">
      <path
         id="path17348"
         d="M 209.70414,762.65324 L 215.33394,760.45609 L 220.13525,765.36726 L 228.20422,751.50849 L 229.68882,765.27797 L 252.10741,751.09686 L 228.26024,776.43868 L 243.88525,796.43869 L 226.0281,787.42083 L 226.06772,798.5984 L 215.63026,789.18936 L 210.37061,790.66049 L 209.70414,762.65324 z"
         style="fill:#d45500;fill-rule:evenodd;stroke:#8b2e25;stroke-width:1px;stroke-linecap:butt;stroke-linejoin:miter;stroke-opacity:1"
         sodipodi:nodetypes="ccccccccccccc" />
      <path
         transform="matrix(1.1228071,0,0,1.1228071,-15.999383,19.36684)"
         style="fill:#ffcc00;fill-rule:evenodd;stroke:none;stroke-width:0.99999994px;stroke-linecap:butt;stroke-linejoin:miter;stroke-opacity:1;filter:url(#filter19344)"
         d="M 206.26398,670.22974 L 206.18426,663.23771 L 210.80767,669.12172 L 215.31151,660.21929 L 215.07237,669.08351 L 227.10917,663.12308 L 216.50722,672.63684 L 222.76476,675.42601 L 216.70651,675.42601 L 221.40962,682.41804 L 213.43823,678.55905 L 214.07595,685.66571 L 209.81125,679.66708 L 208.05754,683.10579 L 206.70241,678.86472 L 202.23843,679.97275 L 206.6227,675.46422 L 200.80358,674.20336 L 206.6227,673.09533 L 200.84344,669.08351 L 206.26398,670.22974 z"
         id="path17350" />
      <path
         id="path18321"
         d="M 218.28815,774.923 L 218.24927,771.51286 L 220.5042,774.3826 L 222.7008,770.04071 L 222.58417,774.36396 L 228.45475,771.45695 L 223.28398,776.09699 L 226.3359,777.45732 L 223.38117,777.45732 L 225.67497,780.86747 L 221.78717,778.98537 L 222.0982,782.45142 L 220.01822,779.52577 L 219.16291,781.2029 L 218.50198,779.13445 L 216.32481,779.67485 L 218.46311,777.47596 L 215.62501,776.86101 L 218.46311,776.32061 L 215.64445,774.36396 L 218.28815,774.923 z"
         style="fill:#ffffff;fill-opacity:1;fill-rule:evenodd;stroke:none;stroke-width:0.99999994px;stroke-linecap:butt;stroke-linejoin:miter;stroke-opacity:1;filter:url(#filter20361)" />
    </g>
    <path
       style="opacity:1;fill:url(#linearGradient38924);fill-opacity:1;stroke:#00222b;stroke-width:0.99999994;stroke-linecap:butt;stroke-linejoin:miter;stroke-miterlimit:4;stroke-dasharray:none;stroke-opacity:1"
       d="M 316.4182,699.78933 C 310.1326,699.63586 304.87908,706.38026 304.67331,714.80853 C 304.46752,723.23681 309.38651,730.19321 315.67211,730.3467 L 341.48113,730.94049 L 342.22368,700.52846 L 316.4182,699.78933 z"
       id="path21345"
       sodipodi:nodetypes="cscccc" />
    <path
       d="M 252.22134,688.45425 A 7.1973367,13.131983 0 1 1 252.31739,662.19394"
       sodipodi:ry="13.131983"
       sodipodi:rx="7.1973367"
       sodipodi:cy="675.32275"
       sodipodi:cx="252.15933"
       id="path22325"
       style="opacity:1;fill:none;fill-opacity:1;stroke:#00222b;stroke-width:0.73695964;stroke-linecap:butt;stroke-linejoin:miter;stroke-miterlimit:4;stroke-dasharray:none;stroke-opacity:1"
       sodipodi:type="arc"
       transform="matrix(1.5821081,3.8628677e-2,-2.8398231e-2,1.1631014,-47.502527,-79.746391)"
       sodipodi:start="1.5621806"
       sodipodi:end="4.7343512"
       sodipodi:open="true" />
    <path
       transform="matrix(1.5821081,3.8628677e-2,-2.824382e-2,1.1567773,-38.733877,-75.175821)"
       sodipodi:type="arc"
       style="opacity:1;fill:url(#radialGradient38932);fill-opacity:1;stroke:#00222b;stroke-width:0.73897135;stroke-linecap:butt;stroke-linejoin:miter;stroke-miterlimit:4;stroke-dasharray:none;stroke-opacity:1"
       id="path21349"
       sodipodi:cx="252.15933"
       sodipodi:cy="675.32275"
       sodipodi:rx="7.1973367"
       sodipodi:ry="13.131983"
       d="M 259.35667,675.32275 A 7.1973367,13.131983 0 1 1 244.962,675.32275 A 7.1973367,13.131983 0 1 1 259.35667,675.32275 z" />
    <path
       sodipodi:open="true"
       sodipodi:end="4.7343512"
       sodipodi:start="1.5621806"
       transform="matrix(1.5821081,3.8628677e-2,-2.8449702e-2,1.1652095,-55.450997,-81.392621)"
       sodipodi:type="arc"
       style="opacity:1;fill:none;fill-opacity:1;stroke:#00222b;stroke-width:0.7362926;stroke-linecap:butt;stroke-linejoin:miter;stroke-miterlimit:4;stroke-dasharray:none;stroke-opacity:1"
       id="path24267"
       sodipodi:cx="252.15933"
       sodipodi:cy="675.32275"
       sodipodi:rx="7.1973367"
       sodipodi:ry="13.131983"
       d="M 252.22134,688.45425 A 7.1973367,13.131983 0 1 1 252.31739,662.19394" />
    <path
       d="M 259.35667,675.32275 A 7.1973367,13.131983 0 1 1 244.962,675.32275 A 7.1973367,13.131983 0 1 1 259.35667,675.32275 z"
       sodipodi:ry="13.131983"
       sodipodi:rx="7.1973367"
       sodipodi:cy="675.32275"
       sodipodi:cx="252.15933"
       id="path24273"
       style="opacity:1;fill:#1c2422;fill-opacity:1;stroke:#00222b;stroke-width:1.38136613;stroke-linecap:butt;stroke-linejoin:miter;stroke-miterlimit:4;stroke-dasharray:none;stroke-opacity:1"
       sodipodi:type="arc"
       transform="matrix(0.839054,2.04863e-2,-1.5240785e-2,0.6242141,140.49965,288.86264)" />
    <path
       style="fill:#53676c;fill-opacity:1;stroke:#00222b;stroke-width:0.99999982;stroke-linecap:butt;stroke-linejoin:miter;stroke-miterlimit:4;stroke-opacity:1"
       d="M 347.05261,716.57046 C 346.94212,721.0953 343.88223,722.07627 343.30726,722.09565 C 341.97297,722.14064 344.61652,720.74861 345.25774,716.05656 C 345.79286,712.14097 340.08562,708.59003 342.38035,708.64605 C 344.6751,708.70208 347.16308,712.04563 347.05261,716.57046 z"
       id="path24281"
       sodipodi:nodetypes="csssc" />
    <path
       style="opacity:0.30204079;fill:none;fill-opacity:1;stroke:#00222b;stroke-width:1;stroke-linecap:butt;stroke-linejoin:miter;stroke-miterlimit:4;stroke-dasharray:none;stroke-dashoffset:0;stroke-opacity:1"
       d="M 399.69691,701.05221 C 393.02489,700.89133 387.44297,707.97477 387.22455,716.81096 C 387.0061,725.64717 392.22878,732.933 398.9008,733.09392 L 426.3002,733.71641 L 426.3002,733.65088 C 426.55497,733.67828 426.80379,733.71016 427.06313,733.71641 C 433.73516,733.8773 439.31817,726.87983 439.5355,718.0887 C 439.75282,709.29754 434.53129,702.03216 427.85924,701.87127 C 427.60017,701.86502 427.35187,701.88899 427.0963,701.90403 L 427.0963,701.83851 L 399.69691,701.05221 z"
       id="path24286" />
    <path
       sodipodi:open="true"
       sodipodi:end="4.7343512"
       sodipodi:start="1.5621806"
       transform="matrix(1.6793724,4.0498289e-2,-3.0144088e-2,1.219395,24.976552,-115.84084)"
       sodipodi:type="arc"
       style="opacity:0.30204079;fill:none;fill-opacity:1;stroke:#00222b;stroke-width:0.69859403;stroke-linecap:butt;stroke-linejoin:miter;stroke-miterlimit:4;stroke-dasharray:none;stroke-dashoffset:0;stroke-opacity:1"
       id="path26229"
       sodipodi:cx="252.15933"
       sodipodi:cy="675.32275"
       sodipodi:rx="7.1973367"
       sodipodi:ry="13.131983"
       d="M 252.22134,688.45425 A 7.1973367,13.131983 0 1 1 252.31739,662.19394" />
    <path
       transform="matrix(0.8906371,2.1477829e-2,-1.6177753e-2,0.6544258,214.86964,270.60872)"
       sodipodi:type="arc"
       style="opacity:0.30204079;fill:#1c2422;fill-opacity:1;stroke:#00222b;stroke-width:1.30945325;stroke-linecap:butt;stroke-linejoin:miter;stroke-miterlimit:4;stroke-dasharray:none;stroke-dashoffset:0;stroke-opacity:1"
       id="path27200"
       sodipodi:cx="252.15933"
       sodipodi:cy="675.32275"
       sodipodi:rx="7.1973367"
       sodipodi:ry="13.131983"
       d="M 259.35667,675.32275 A 7.1973367,13.131983 0 1 1 244.962,675.32275 A 7.1973367,13.131983 0 1 1 259.35667,675.32275 z" />
    <path
       sodipodi:open="true"
       sodipodi:end="4.7343512"
       sodipodi:start="1.5621806"
       transform="matrix(1.6793724,4.0498289e-2,-3.0144088e-2,1.219395,15.119971,-116.02806)"
       sodipodi:type="arc"
       style="opacity:0.30204079;fill:none;fill-opacity:1;stroke:#00222b;stroke-width:0.69859403;stroke-linecap:butt;stroke-linejoin:miter;stroke-miterlimit:4;stroke-dasharray:none;stroke-opacity:1"
       id="path28171"
       sodipodi:cx="252.15933"
       sodipodi:cy="675.32275"
       sodipodi:rx="7.1973367"
       sodipodi:ry="13.131983"
       d="M 252.22134,688.45425 A 7.1973367,13.131983 0 1 1 252.31739,662.19394" />
    <path
       d="M 252.22134,688.45425 A 7.1973367,13.131983 0 1 1 252.31739,662.19394"
       sodipodi:ry="13.131983"
       sodipodi:rx="7.1973367"
       sodipodi:cy="675.32275"
       sodipodi:cx="252.15933"
       id="path29142"
       style="opacity:0.30204079;fill:none;fill-opacity:1;stroke:#00222b;stroke-width:0.69859403;stroke-linecap:butt;stroke-linejoin:miter;stroke-miterlimit:4;stroke-dasharray:none;stroke-opacity:1"
       sodipodi:type="arc"
       transform="matrix(1.6793724,4.0498289e-2,-3.0144088e-2,1.219395,4.7082149,-116.21527)"
       sodipodi:start="1.5621806"
       sodipodi:end="4.7343512"
       sodipodi:open="true" />
    <path
       style="opacity:1;fill:url(#linearGradient39911);fill-opacity:1;stroke:#00222b;stroke-width:0.99999994;stroke-linecap:butt;stroke-linejoin:miter;stroke-miterlimit:4;stroke-dasharray:none;stroke-dashoffset:0;stroke-opacity:1"
       d="M 672.65622,713.75219 L 672.65527,713.7874 C 668.53519,713.81872 664.99473,718.33994 664.70341,724.09523 C 664.40394,730.01095 667.64534,734.99394 671.9128,735.2219 C 671.97066,735.22499 672.02561,735.22544 672.08326,735.22676 L 705.18803,736.16849 L 705.76098,714.69393 L 672.65622,713.75219 z"
       id="path32073" />
    <path
       transform="matrix(1.0741361,5.7378373e-2,-4.1312413e-2,0.8160913,462.22585,159.84545)"
       sodipodi:type="arc"
       style="opacity:1;fill:#939dac;fill-opacity:1;stroke:#00222b;stroke-width:1.06663191;stroke-linecap:butt;stroke-linejoin:miter;stroke-miterlimit:4;stroke-dasharray:none;stroke-dashoffset:0;stroke-opacity:1"
       id="path32075"
       sodipodi:cx="252.15933"
       sodipodi:cy="675.32275"
       sodipodi:rx="7.1973367"
       sodipodi:ry="13.131983"
       d="M 259.35667,675.32275 A 7.1973367,13.131983 0 1 1 244.962,675.32275 A 7.1973367,13.131983 0 1 1 259.35667,675.32275 z" />
    <path
       style="opacity:0.5;fill:none;fill-opacity:1;stroke:#00222b;stroke-width:1;stroke-linecap:butt;stroke-linejoin:miter;stroke-miterlimit:4;stroke-dasharray:none;stroke-dashoffset:0;stroke-opacity:1"
       d="M 490.62361,703.86225 C 483.57062,703.80726 477.79077,711.29821 477.70784,720.52851 C 477.62489,729.75883 483.26559,737.27812 490.31858,737.33317 L 519.2818,737.51914 L 519.28071,737.45071 C 519.55039,737.47501 519.81385,737.50408 520.08799,737.50622 C 527.14098,737.56124 532.92342,730.16004 533.00596,720.9768 C 533.08848,711.79354 527.44933,704.29556 520.39632,704.24057 C 520.12245,704.23844 519.86046,704.26767 519.59067,704.2877 L 519.58958,704.21927 L 490.62361,703.86225 z"
       id="path34028" />
    <path
       sodipodi:open="true"
       sodipodi:end="4.7343512"
       sodipodi:start="1.5621806"
       transform="matrix(1.7752624,1.3846952e-2,-1.144679e-2,1.2737828,80.987865,-142.77803)"
       sodipodi:type="arc"
       style="opacity:0.5;fill:none;fill-opacity:1;stroke:#00222b;stroke-width:0.66497576;stroke-linecap:butt;stroke-linejoin:miter;stroke-miterlimit:4;stroke-dasharray:none;stroke-dashoffset:0;stroke-opacity:1"
       id="path34030"
       sodipodi:cx="252.15933"
       sodipodi:cy="675.32275"
       sodipodi:rx="7.1973367"
       sodipodi:ry="13.131983"
       d="M 252.22134,688.45425 A 7.1973367,13.131983 0 1 1 252.31739,662.19394" />
    <path
       transform="matrix(0.9414913,7.3435797e-3,-6.1432735e-3,0.6836146,288.11414,257.53034)"
       sodipodi:type="arc"
       style="opacity:0.5;fill:#1c2422;fill-opacity:1;stroke:#00222b;stroke-width:1.24643874;stroke-linecap:butt;stroke-linejoin:miter;stroke-miterlimit:4;stroke-dasharray:none;stroke-dashoffset:0;stroke-opacity:1"
       id="path34032"
       sodipodi:cx="252.15933"
       sodipodi:cy="675.32275"
       sodipodi:rx="7.1973367"
       sodipodi:ry="13.131983"
       d="M 259.35667,675.32275 A 7.1973367,13.131983 0 1 1 244.962,675.32275 A 7.1973367,13.131983 0 1 1 259.35667,675.32275 z" />
    <path
       sodipodi:open="true"
       sodipodi:end="4.7343512"
       sodipodi:start="1.5621806"
       transform="matrix(1.7752624,1.3846952e-2,-1.144679e-2,1.2737828,70.569331,-142.80659)"
       sodipodi:type="arc"
       style="opacity:0.5;fill:none;fill-opacity:1;stroke:#00222b;stroke-width:0.66497576;stroke-linecap:butt;stroke-linejoin:miter;stroke-miterlimit:4;stroke-dasharray:none;stroke-opacity:1"
       id="path34034"
       sodipodi:cx="252.15933"
       sodipodi:cy="675.32275"
       sodipodi:rx="7.1973367"
       sodipodi:ry="13.131983"
       d="M 252.22134,688.45425 A 7.1973367,13.131983 0 1 1 252.31739,662.19394" />
    <path
       d="M 252.22134,688.45425 A 7.1973367,13.131983 0 1 1 252.31739,662.19394"
       sodipodi:ry="13.131983"
       sodipodi:rx="7.1973367"
       sodipodi:cy="675.32275"
       sodipodi:cx="252.15933"
       id="path34036"
       style="opacity:0.5;fill:none;fill-opacity:1;stroke:#00222b;stroke-width:0.66497576;stroke-linecap:butt;stroke-linejoin:miter;stroke-miterlimit:4;stroke-dasharray:none;stroke-opacity:1"
       sodipodi:type="arc"
       transform="matrix(1.7752624,1.3846952e-2,-1.144679e-2,1.2737828,59.564144,-142.82575)"
       sodipodi:start="1.5621806"
       sodipodi:end="4.7343512"
       sodipodi:open="true" />
    <path
       id="path34040"
       d="M 590.4049,704.16937 C 582.97414,703.98933 576.75745,711.91626 576.51419,721.80466 C 576.2709,731.69307 582.0875,739.84648 589.51827,740.02657 L 620.03349,740.72317 L 620.03349,740.64985 C 620.31725,740.6805 620.59436,740.71618 620.8832,740.72317 C 628.31395,740.90324 634.53186,733.07252 634.7739,723.23454 C 635.01595,713.39655 629.20062,705.26601 621.76984,705.08596 C 621.4813,705.07897 621.20476,705.1058 620.92014,705.12263 L 620.92014,705.0493 L 590.4049,704.16937 z"
       style="opacity:0.71836733;fill:none;fill-opacity:1;stroke:#00222b;stroke-width:1;stroke-linecap:butt;stroke-linejoin:miter;stroke-miterlimit:4;stroke-dasharray:none;stroke-dashoffset:0;stroke-opacity:1" />
    <path
       d="M 252.22134,688.45425 A 7.1973367,13.131983 0 1 1 252.31739,662.19394"
       sodipodi:ry="13.131983"
       sodipodi:rx="7.1973367"
       sodipodi:cy="675.32275"
       sodipodi:cx="252.15933"
       id="path34042"
       style="opacity:0.71836733;fill:none;fill-opacity:1;stroke:#00222b;stroke-width:0.62575847;stroke-linecap:butt;stroke-linejoin:miter;stroke-miterlimit:4;stroke-dasharray:none;stroke-dashoffset:0;stroke-opacity:1"
       sodipodi:type="arc"
       transform="matrix(1.8703493,4.5320766e-2,-3.357205e-2,1.3645988,173.07164,-209.99809)"
       sodipodi:start="1.5621806"
       sodipodi:end="4.7343512"
       sodipodi:open="true" />
    <path
       d="M 259.35667,675.32275 A 7.1973367,13.131983 0 1 1 244.962,675.32275 A 7.1973367,13.131983 0 1 1 259.35667,675.32275 z"
       sodipodi:ry="13.131983"
       sodipodi:rx="7.1973367"
       sodipodi:cy="675.32275"
       sodipodi:cx="252.15933"
       id="path34044"
       style="opacity:0.71836733;fill:#1c2422;fill-opacity:1;stroke:#00222b;stroke-width:1.17292941;stroke-linecap:butt;stroke-linejoin:miter;stroke-miterlimit:4;stroke-dasharray:none;stroke-dashoffset:0;stroke-opacity:1"
       sodipodi:type="arc"
       transform="matrix(0.9919196,2.4035377e-2,-1.8017474e-2,0.7323538,384.55922,222.4693)" />
    <path
       d="M 252.22134,688.45425 A 7.1973367,13.131983 0 1 1 252.31739,662.19394"
       sodipodi:ry="13.131983"
       sodipodi:rx="7.1973367"
       sodipodi:cy="675.32275"
       sodipodi:cx="252.15933"
       id="path34046"
       style="opacity:0.71836733;fill:none;fill-opacity:1;stroke:#00222b;stroke-width:0.62575847;stroke-linecap:butt;stroke-linejoin:miter;stroke-miterlimit:4;stroke-dasharray:none;stroke-opacity:1"
       sodipodi:type="arc"
       transform="matrix(1.8703493,4.5320766e-2,-3.357205e-2,1.3645988,162.09417,-210.2076)"
       sodipodi:start="1.5621806"
       sodipodi:end="4.7343512"
       sodipodi:open="true" />
    <path
       sodipodi:open="true"
       sodipodi:end="4.7343512"
       sodipodi:start="1.5621806"
       transform="matrix(1.8703493,4.5320766e-2,-3.357205e-2,1.3645988,150.4984,-210.41711)"
       sodipodi:type="arc"
       style="opacity:0.71836733;fill:none;fill-opacity:1;stroke:#00222b;stroke-width:0.62575847;stroke-linecap:butt;stroke-linejoin:miter;stroke-miterlimit:4;stroke-dasharray:none;stroke-opacity:1"
       id="path34048"
       sodipodi:cx="252.15933"
       sodipodi:cy="675.32275"
       sodipodi:rx="7.1973367"
       sodipodi:ry="13.131983"
       d="M 252.22134,688.45425 A 7.1973367,13.131983 0 1 1 252.31739,662.19394" />
    <path
       style="fill:#ff6600;fill-rule:evenodd;stroke:#a02c2c;stroke-width:1px;stroke-linecap:butt;stroke-linejoin:miter;stroke-opacity:1"
       d="M 276.25971,708.68124 L 278.78053,712.79489 L 275.69951,716.5921 L 291.99023,714.78433 L 291.51434,717.96127 L 300.38078,713.26582 L 291.94493,707.73194 L 292.10398,711.15582 L 276.25971,708.68124 z"
       id="path44796"
       sodipodi:nodetypes="ccccccccc" />
    <path
       sodipodi:nodetypes="ccccccccc"
       id="path46744"
       d="M 359.09222,711.20662 L 361.61304,715.32027 L 358.53202,719.11748 L 374.82274,717.30971 L 374.34685,720.48665 L 383.21329,715.7912 L 374.77744,710.25732 L 374.93649,713.6812 L 359.09222,711.20662 z"
       style="fill:#ff6600;fill-rule:evenodd;stroke:#a02c2c;stroke-width:1px;stroke-linecap:butt;stroke-linejoin:miter;stroke-opacity:1" />
    <path
       style="fill:#ff6600;fill-rule:evenodd;stroke:#a02c2c;stroke-width:1px;stroke-linecap:butt;stroke-linejoin:miter;stroke-opacity:1"
       d="M 445.94503,713.732 L 448.46585,717.84565 L 445.38483,721.64286 L 461.67555,719.83509 L 461.19966,723.01203 L 470.0661,718.31658 L 461.63025,712.7827 L 461.7893,716.20658 L 445.94503,713.732 z"
       id="path46746"
       sodipodi:nodetypes="ccccccccc" />
    <path
       sodipodi:nodetypes="ccccccccc"
       id="path46748"
       d="M 542.4349,716.25739 L 544.95572,720.37104 L 541.8747,724.16825 L 558.16542,722.36048 L 557.68953,725.53742 L 566.55597,720.84197 L 558.12012,715.30809 L 558.27917,718.73197 L 542.4349,716.25739 z"
       style="fill:#ff6600;fill-rule:evenodd;stroke:#a02c2c;stroke-width:1px;stroke-linecap:butt;stroke-linejoin:miter;stroke-opacity:1" />
    <path
       style="fill:#ff6600;fill-rule:evenodd;stroke:#a02c2c;stroke-width:1px;stroke-linecap:butt;stroke-linejoin:miter;stroke-opacity:1"
       d="M 637.68511,719.28785 L 640.20593,723.4015 L 637.12491,727.19871 L 653.41563,725.39094 L 652.93974,728.56788 L 661.80618,723.87243 L 653.37033,718.33855 L 653.52938,721.76243 L 637.68511,719.28785 z"
       id="path46750"
       sodipodi:nodetypes="ccccccccc" />
    <text
       xml:space="preserve"
       style="font-size:24px;font-style:normal;font-variant:normal;font-weight:normal;font-stretch:normal;text-align:center;line-height:125%;writing-mode:lr;text-anchor:middle;fill:#000000;fill-opacity:1;stroke:none;stroke-width:1px;stroke-linecap:butt;stroke-linejoin:miter;stroke-opacity:1;font-family:Arial;-inkscape-font-specification:Arial"
       x="285.42609"
       y="518.08282"
       id="text2486"
       sodipodi:linespacing="125%"><tspan
         sodipodi:role="line"
         id="tspan2488"
         x="285.42609"
         y="518.08282">Conventional</tspan><tspan
         sodipodi:role="line"
         x="285.42609"
         y="548.08276"
         id="tspan2490">explosive</tspan></text>
    <text
       sodipodi:linespacing="125%"
       id="text2492"
       y="553.79706"
       x="478.28323"
       style="font-size:24px;font-style:normal;font-variant:normal;font-weight:normal;font-stretch:normal;text-align:center;line-height:125%;writing-mode:lr;text-anchor:middle;fill:#000000;fill-opacity:1;stroke:none;stroke-width:1px;stroke-linecap:butt;stroke-linejoin:miter;stroke-opacity:1;font-family:Arial;-inkscape-font-specification:Arial"
       xml:space="preserve"><tspan
         id="tspan2496"
         y="553.79706"
         x="478.28323"
         sodipodi:role="line">Gun barrel</tspan></text>
    <text
       xml:space="preserve"
       style="font-size:24px;font-style:normal;font-variant:normal;font-weight:normal;font-stretch:normal;text-align:center;line-height:125%;writing-mode:lr;text-anchor:middle;fill:#000000;fill-opacity:1;stroke:none;stroke-width:1px;stroke-linecap:butt;stroke-linejoin:miter;stroke-opacity:1;font-family:Arial;-inkscape-font-specification:Arial"
       x="383.9975"
       y="880.93994"
       id="text2500"
       sodipodi:linespacing="125%"><tspan
         sodipodi:role="line"
         x="383.9975"
         y="880.93994"
         id="tspan2502">Hollow uranium</tspan><tspan
         sodipodi:role="line"
         x="383.9975"
         y="910.93994"
         id="tspan2504">&quot;bullet&quot;</tspan></text>
    <text
       sodipodi:linespacing="125%"
       id="text2506"
       y="886.65417"
       x="633.9975"
       style="font-size:24px;font-style:normal;font-variant:normal;font-weight:normal;font-stretch:normal;text-align:center;line-height:125%;writing-mode:lr;text-anchor:middle;fill:#000000;fill-opacity:1;stroke:none;stroke-width:1px;stroke-linecap:butt;stroke-linejoin:miter;stroke-opacity:1;font-family:Arial;-inkscape-font-specification:Arial"
       xml:space="preserve"><tspan
         id="tspan2510"
         y="886.65417"
         x="633.9975"
         sodipodi:role="line">Cylinder</tspan><tspan
         y="916.65417"
         x="633.9975"
         sodipodi:role="line"
         id="tspan2516">target</tspan></text>
    <path
       style="fill:none;fill-rule:evenodd;stroke:#000000;stroke-width:2.20000005;stroke-linecap:butt;stroke-linejoin:miter;stroke-miterlimit:4;stroke-dasharray:none;stroke-opacity:1"
       d="M 377.00375,855.06262 L 317.33966,719.24832 L 318.12471,719.24832"
       id="path2498" />
    <path
       style="fill:none;fill-rule:evenodd;stroke:#000000;stroke-width:2.20000005;stroke-linecap:butt;stroke-linejoin:miter;stroke-miterlimit:4;stroke-dasharray:none;stroke-opacity:1"
       d="M 260.81579,711.79031 L 278.87202,557.91977 L 279.65707,557.91977"
       id="path3270"
       sodipodi:nodetypes="ccc" />
    <path
       style="fill:none;fill-rule:evenodd;stroke:#000000;stroke-width:2.20000005;stroke-linecap:butt;stroke-linejoin:miter;stroke-miterlimit:4;stroke-dasharray:none;stroke-opacity:1"
       d="M 554.42589,702.36967 L 472.7803,563.41515 L 473.56535,563.41515"
       id="path3272"
       sodipodi:nodetypes="ccc" />
    <path
       style="fill:none;fill-rule:evenodd;stroke:#000000;stroke-width:2.20000005;stroke-linecap:butt;stroke-linejoin:miter;stroke-miterlimit:4;stroke-dasharray:none;stroke-opacity:1"
       d="M 634.24123,864.42098 L 684.48467,725.46647 L 685.26972,725.46647"
       id="path3274"
       sodipodi:nodetypes="ccc" />
  </g>
</svg>
